<svg xmlns="http://www.w3.org/2000/svg" viewBox="0 0 919.1419 459.1294"><circle fill="none" stroke="#749948" stroke-width="15.7" stroke-miterlimit="10" cx="268.6" cy="136.5" r="53.2"/><path fill="none" stroke="#749948" stroke-width="15.7" stroke-miterlimit="10" d="M677.4 235.3l-110 47.3c-5.5 2-13.3-5.8-17.4-17.2-4-11.5-3-22.4 2.5-24.4l110-47.3 15 41.6z"/><path fill="none" stroke="#749948" stroke-width="15.7" stroke-miterlimit="10" d="M677.4 235.3l-110 47.3c-5.5 2-13.3-5.8-17.4-17.2-4-11.5-3-22.4 2.5-24.4l110-47.3 15 41.6z"/><circle fill="none" stroke="#749948" stroke-width="15.7" stroke-miterlimit="10" cx="455.9" cy="259.9" r="190"/><linearGradient id="a" gradientUnits="userSpaceOnUse" x1="360.9" y1="95.4" x2="550.9" y2="424.5"><stop offset="0" stop-color="#a0dbe6"/><stop offset=".1" stop-color="#a4dce1"/><stop offset=".2" stop-color="#afddd3"/><stop offset=".4" stop-color="#c0e0ba"/><stop offset=".6" stop-color="#d5e597"/><stop offset=".8" stop-color="#eeea62"/><stop offset="1" stop-color="#fff200"/></linearGradient><circle fill="url(#a)" cx="455.9" cy="259.9" r="190"/><path fill="none" stroke="#647331" stroke-width="15.7" stroke-linecap="round" stroke-linejoin="round" stroke-miterlimit="10" d="M95.7 396.4a87.8 87.8 0 0 1-87.9-86.7 87.8 87.8 0 0 1 88-86.7 82.6 82.6 0 0 1 59.3 24l-16.7 16.6a62.2 62.2 0 0 0-104.8 46c0 35 27.2 63.1 62.1 63.1a58 58 0 0 0 43.8-17.3 49.4 49.4 0 0 0 12.9-29.8H95.7v-23.7h79.7c.8 4.2 1.3 9.3 1.3 14.8 0 17.7-4.9 39.7-20.5 55.4a79.2 79.2 0 0 1-60.5 24.3z"/><path fill="none" stroke="#647331" stroke-width="15.7" stroke-linecap="round" stroke-linejoin="round" stroke-miterlimit="10" d="M95.7 396.4a87.8 87.8 0 0 1-87.9-86.7 87.8 87.8 0 0 1 88-86.7 82.6 82.6 0 0 1 59.3 24l-16.7 16.6a62.2 62.2 0 0 0-104.8 46c0 35 27.2 63.1 62.1 63.1a58 58 0 0 0 43.8-17.3 49.4 49.4 0 0 0 12.9-29.8H95.7v-23.7h79.7c.8 4.2 1.3 9.3 1.3 14.8 0 17.7-4.9 39.7-20.5 55.4a79.2 79.2 0 0 1-60.5 24.3z"/><path fill="#FFF" d="M677.4 235.3l-110 47.3c-5.5 2-13.3-5.8-17.4-17.2-4-11.5-3-22.4 2.5-24.4l110-47.3 15 41.6z"/><path fill="#FFF" d="M677.4 235.3l-110 47.3c-5.5 2-13.3-5.8-17.4-17.2-4-11.5-3-22.4 2.5-24.4l110-47.3 15 41.6z"/><path fill="#916C29" d="M555.2 256.2l-35.3 15.2 3.5 11 35.2-15.2zm-17.7 53l23.3 3-2.4 7.5-21.7-2.7zm53.8 4.7l-3.1-7.4-2.6-.6.8 7.5-11.8-1.2-2 7.6 26.3 5.7 7.4-10.2zm-62.3 3.3l-15.7 69.1 7.3.6 20.2-67.7z"/><path fill="#916C29" d="M562.3 318.4l-28.2 72.9 9.5 3 30.3-75zm31.6 7.4l-35.4 71.7 8.5 3.2 42.3-72.6z"/><path fill="#6F8036" d="M493 359.3c-7.8-6.6-17.5-24-24.8-45.4-10-29.1-11.8-54.9-4.1-57.5 7.7-2.7 22 18.8 32 48 7.2 21.3 10.2 40.8 8.2 50.8l-7.6-3.7-3.8 7.8z"/><path fill="none" stroke="#54612B" stroke-width="3.6" stroke-linecap="round" stroke-linejoin="round" stroke-miterlimit="10" d="M481.9 307.4l14.8 44.1"/><path fill="#6F8036" d="M493 359.3c-7.8-6.6-17.5-24-24.8-45.4-10-29.1-11.8-54.9-4.1-57.5 7.7-2.7 22 18.8 32 48 7.2 21.3 10.2 40.8 8.2 50.8l-7.6-3.7-3.8 7.8z"/><path fill="none" stroke="#54612B" stroke-width="3.6" stroke-linecap="round" stroke-linejoin="round" stroke-miterlimit="10" d="M481.9 307.4l14.8 44.1"/><path fill="none" stroke="#41491F" stroke-width="8.6" stroke-linecap="round" stroke-linejoin="round" stroke-miterlimit="10" d="M480.6 292.9s30.3 21.6 35.9-18.2M490 368.4c-26.1 1.7-22.7-28.5-22.7-28.5"/><linearGradient id="b" gradientUnits="userSpaceOnUse" x1="2948.2" y1="-80.4" x2="2998.4" y2="-80.4" gradientTransform="scale(-1 1) rotate(16.2 -82 -11955.7)"><stop offset="0" stop-color="#798e39"/><stop offset=".2" stop-color="#82993c"/><stop offset=".7" stop-color="#96b045"/><stop offset="1" stop-color="#a0ba49"/></linearGradient><path fill="url(#b)" d="M475.8 260.7l9.5 63.7a20 20 0 0 1-17.1 22.5l-1.9.2a20 20 0 0 1-22.4-17l-8.7-70.6 40.6 1.2z"/><path fill="#7F8E38" d="M480.4 288.4l-41.4 5.7-1.4-10 41.4-5.6zm2.7 20.4l-41.4 5.6-1.3-9.9 41.4-5.6zM486 329l-41.5 5.7-1.3-9.9 41.4-5.6z"/><path fill="none" stroke="#41491F" stroke-width="8.6" stroke-linecap="round" stroke-linejoin="round" stroke-miterlimit="10" d="M440.4 274.4s35.4.6 78-3"/><linearGradient id="c" gradientUnits="userSpaceOnUse" x1="282.6" y1="393.9" x2="584.6" y2="393.9"><stop offset="0" stop-color="#98af4e"/><stop offset="1" stop-color="#5a7735"/></linearGradient><path fill="url(#c)" d="M455.9 449.9a189 189 0 0 0 128.7-50.3l-302-61.6A190 190 0 0 0 456 449.9z"/><linearGradient id="d" gradientUnits="userSpaceOnUse" x1="510.8" y1="665" x2="683.4" y2="665" gradientTransform="rotate(17.5 1619 -287.4)"><stop offset="0" stop-color="#fff" stop-opacity="0"/><stop offset="1" stop-color="#fff"/></linearGradient><path fill="url(#d)" d="M420 317.2l12.5-25.6-25.2 13.4-20.5-19.9 3.5 20-58.2 34.9-61.5-38 2.2 12.4 39.6 29 32.2 7.3 50.3-19.2 4.8 27.2 12.6-25.6 28.2 4z"/><path fill="none" stroke="#FFF" stroke-width="4" stroke-miterlimit="10" d="M377.7 305l-17.1-5.7m48.2-22.3l-2.5 17.9m24.6 56.2l-13.8-11.6M379 352.6l10.6-14.6"/><path fill="none" stroke="#41491F" stroke-width="8.6" stroke-linecap="round" stroke-linejoin="round" stroke-miterlimit="10" d="M436.2 365c6.7-26.2 30.1-25 30.1-25"/><linearGradient id="e" gradientUnits="userSpaceOnUse" x1="92.3" y1="223" x2="92.3" y2="396.4"><stop offset="0" stop-color="#fff200"/><stop offset=".2" stop-color="#ffed00"/><stop offset=".4" stop-color="#ffe500"/><stop offset=".5" stop-color="gold"/><stop offset=".7" stop-color="#ffc40c"/><stop offset=".9" stop-color="#fbaa19"/><stop offset="1" stop-color="#f7941d"/></linearGradient><path fill="url(#e)" d="M95.7 396.4a87.8 87.8 0 0 1-87.9-86.7 87.8 87.8 0 0 1 88-86.7 82.6 82.6 0 0 1 59.3 24l-16.7 16.6a62.2 62.2 0 0 0-104.8 46c0 35 27.2 63.1 62.1 63.1a58 58 0 0 0 43.8-17.3 49.4 49.4 0 0 0 12.9-29.8H95.7v-23.7h79.7c.8 4.2 1.3 9.3 1.3 14.8 0 17.7-4.9 39.7-20.5 55.4a79.2 79.2 0 0 1-60.5 24.3z"/><linearGradient id="f" gradientUnits="userSpaceOnUse" x1="92.3" y1="223" x2="92.3" y2="396.4"><stop offset="0" stop-color="#fff200"/><stop offset=".2" stop-color="#ffed00"/><stop offset=".4" stop-color="#ffe500"/><stop offset=".5" stop-color="gold"/><stop offset=".7" stop-color="#ffc40c"/><stop offset=".9" stop-color="#fbaa19"/><stop offset="1" stop-color="#f7941d"/></linearGradient><path fill="url(#f)" d="M95.7 396.4a87.8 87.8 0 0 1-87.9-86.7 87.8 87.8 0 0 1 88-86.7 82.6 82.6 0 0 1 59.3 24l-16.7 16.6a62.2 62.2 0 0 0-104.8 46c0 35 27.2 63.1 62.1 63.1a58 58 0 0 0 43.8-17.3 49.4 49.4 0 0 0 12.9-29.8H95.7v-23.7h79.7c.8 4.2 1.3 9.3 1.3 14.8 0 17.7-4.9 39.7-20.5 55.4a79.2 79.2 0 0 1-60.5 24.3z"/><path fill="#916C29" d="M511.6 275.1c-.5 0-1 0-1.5.2l.1-.2-17.4 7.7 4.6 10.2 15.9-6.9h-.2l2.1-.9c1.3-1 2.1-2.7 2.2-4.5a5.8 5.8 0 0 0-5.8-5.6z"/><ellipse transform="rotate(-22.7 534.4 270)" fill="#FFF" cx="534.4" cy="270" rx="14" ry="14"/><ellipse transform="rotate(-22.7 534.4 270)" fill="none" stroke="#41491F" stroke-width="2" stroke-linecap="round" stroke-linejoin="round" stroke-miterlimit="10" cx="534.4" cy="270" rx="14" ry="14"/><ellipse transform="rotate(-22.7 519.5 280.1)" fill="#FFF" cx="519.5" cy="280.1" rx="13.9" ry="13.9"/><ellipse transform="rotate(-22.7 519.5 280.1)" fill="none" stroke="#41491F" stroke-width="2" stroke-linecap="round" stroke-linejoin="round" stroke-miterlimit="10" cx="519.5" cy="280.1" rx="13.9" ry="13.9"/><ellipse transform="rotate(-22.7 534.4 270)" fill="#FFF" cx="534.4" cy="270" rx="14" ry="14"/><ellipse transform="rotate(-22.7 534.4 270)" fill="none" stroke="#41491F" stroke-width="2" stroke-linecap="round" stroke-linejoin="round" stroke-miterlimit="10" cx="534.4" cy="270" rx="14" ry="14"/><ellipse transform="rotate(-22.7 519.5 280.1)" fill="#FFF" cx="519.5" cy="280.1" rx="13.9" ry="13.9"/><ellipse transform="rotate(-22.7 519.5 280.1)" fill="none" stroke="#41491F" stroke-width="2" stroke-linecap="round" stroke-linejoin="round" stroke-miterlimit="10" cx="519.5" cy="280.1" rx="13.9" ry="13.9"/><path fill="none" stroke="#647331" stroke-width="10" stroke-linecap="round" stroke-linejoin="round" stroke-miterlimit="10" d="M545 177.7c25-7.5 48-29.2 59.4-59.4 15.4-40.7 5-83.5-22.8-103"/><path fill="none" stroke="#647331" stroke-width="10" stroke-linecap="round" stroke-linejoin="round" stroke-miterlimit="10" d="M534.7 164.1c17.9-18.9 27-49 22-81-6.7-43-37-75-71-78.1"/><path fill="none" stroke="#424D21" stroke-width="11.5" stroke-linecap="round" stroke-miterlimit="10" d="M527.6 145a61.6 61.6 0 0 0-49.6-21.6"/><linearGradient id="g" gradientUnits="userSpaceOnUse" x1="3019.4" y1="-151.1" x2="3223.3" y2="-151.1" gradientTransform="scale(-1 1) rotate(15.6 40.6 -12959.4)"><stop offset="0" stop-color="#798e39"/><stop offset=".2" stop-color="#7f963b"/><stop offset=".7" stop-color="#8ca440"/><stop offset="1" stop-color="#91aa42"/></linearGradient><path fill="url(#g)" d="M454.6 265l-53.5.4a56 56 0 0 1-56.4-55.3v-8a56 56 0 0 1 55.3-56.3l93.3-.9a56 56 0 0 1 56.4 55.4l.1 7.9a56 56 0 0 1-53.2 56.3"/><ellipse transform="rotate(-79.2 481.4 182.1)" fill="#FFF" cx="481.4" cy="182.1" rx="43.4" ry="43.4"/><ellipse transform="rotate(-79.2 473.3 182.1)" fill="#424D21" cx="473.3" cy="182.1" rx="30.3" ry="30.3"/><path fill="none" stroke="#7F8E38" stroke-width="4" stroke-miterlimit="10" d="M375.3 168l16.9-8.9"/><path fill="#424D21" d="M384.2 248a24.1 24.1 0 0 0 43.5-17.7c-3.2 5.8-10.1 11.6-19.1 15.3s-18 4.4-24.4 2.5z"/><path fill="#E5A1BD" d="M421 252.3a15.3 15.3 0 0 0-19.7 7c7.4.8 14.2-1.3 19.7-7z"/><path fill="none" stroke="#647331" stroke-width="10" stroke-linecap="round" stroke-linejoin="round" stroke-miterlimit="10" d="M545 177.7c25-7.5 48-29.2 59.4-59.4 15.4-40.7 5-83.5-22.8-103"/><path fill="none" stroke="#647331" stroke-width="10" stroke-linecap="round" stroke-linejoin="round" stroke-miterlimit="10" d="M534.7 164.1c17.9-18.9 27-49 22-81-6.7-43-37-75-71-78.1"/><path fill="none" stroke="#424D21" stroke-width="11.5" stroke-linecap="round" stroke-miterlimit="10" d="M527.6 145a61.6 61.6 0 0 0-49.6-21.6"/><linearGradient id="h" gradientUnits="userSpaceOnUse" x1="3019.4" y1="-151.1" x2="3223.3" y2="-151.1" gradientTransform="scale(-1 1) rotate(15.6 40.6 -12959.4)"><stop offset="0" stop-color="#798e39"/><stop offset=".2" stop-color="#7f963b"/><stop offset=".7" stop-color="#8ca440"/><stop offset="1" stop-color="#91aa42"/></linearGradient><path fill="url(#h)" d="M454.6 265l-53.5.4a56 56 0 0 1-56.4-55.3v-8a56 56 0 0 1 55.3-56.3l93.3-.9a56 56 0 0 1 56.4 55.4l.1 7.9a56 56 0 0 1-53.2 56.3"/><ellipse transform="rotate(-79.2 481.4 182.1)" fill="#FFF" cx="481.4" cy="182.1" rx="43.4" ry="43.4"/><ellipse transform="rotate(-79.2 473.3 182.1)" fill="#424D21" cx="473.3" cy="182.1" rx="30.3" ry="30.3"/><path fill="none" stroke="#7F8E38" stroke-width="4" stroke-miterlimit="10" d="M375.3 168l16.9-8.9"/><path fill="#424D21" d="M384.2 248a24.1 24.1 0 0 0 43.5-17.7c-3.2 5.8-10.1 11.6-19.1 15.3s-18 4.4-24.4 2.5z"/><path fill="#E5A1BD" d="M421 252.3a15.3 15.3 0 0 0-19.7 7c7.4.8 14.2-1.3 19.7-7z"/><path fill="none" d="M462.7 295.1l-10.3 1.1"/><linearGradient id="i" gradientUnits="userSpaceOnUse" x1="670.6" y1="377.6" x2="670.6" y2="574.6" gradientTransform="matrix(1.09 .073 -.0532 .7945 -189.3 -134.4)"><stop offset="0" stop-color="#fff" stop-opacity="0"/><stop offset="1" stop-color="#fff" stop-opacity=".7"/></linearGradient><path fill="url(#i)" d="M540.2 247.6c2.1 6.4 3 13.3 2.6 20.3-2.2 31.8-32 55.7-66.8 53.3a64.4 64.4 0 0 1-51.8-31.1l-9.3 3.4c1.4 2.8 3 5.5 4.6 8.2a110.8 110.8 0 0 0 86.2 49.3c59.3 4 110.3-36.8 114-91.1a92 92 0 0 0-6-39.2l-73.5 27z"/><linearGradient id="j" gradientUnits="userSpaceOnUse" x1="259.2" y1="220.3" x2="404.5" y2="220.3"><stop offset="0" stop-color="#fff" stop-opacity=".7"/><stop offset="1" stop-color="#fff" stop-opacity="0"/></linearGradient><path fill="url(#j)" d="M404.5 315.7L259.2 187.5l61.1-62.6z"/><circle fill="#AA1F44" cx="268.6" cy="136.5" r="53.2"/><g fill="none" stroke="#FFF" stroke-width="4.2" stroke-miterlimit="10"><path d="M227.7 167.1l4.4-4.5"/><path stroke-dasharray="12.786,12.786" d="M241.2 153.6l49.7-49.8"/><path d="M295.4 99.3l4.5-4.5"/></g><g fill="none" stroke="#FFF" stroke-width="4.2" stroke-miterlimit="10"><path d="M232.9 174.2l4.5-4.5"/><path stroke-dasharray="12.9676,12.9676" d="M246.6 160.5l50.4-50.4"/><path d="M301.6 105.5l4.5-4.5"/></g><path opacity=".5" fill="#701431" d="M297.3 92.5a53.2 53.2 0 0 1-73.5 73.5 53.2 53.2 0 1 0 73.5-73.5z"/><circle fill="#AA1F44" cx="268.6" cy="136.5" r="53.2"/><g fill="none" stroke="#FFF" stroke-width="4.2" stroke-miterlimit="10"><path d="M227.7 167.1l4.4-4.5"/><path stroke-dasharray="12.786,12.786" d="M241.2 153.6l49.7-49.8"/><path d="M295.4 99.3l4.5-4.5"/></g><g fill="none" stroke="#FFF" stroke-width="4.2" stroke-miterlimit="10"><path d="M232.9 174.2l4.5-4.5"/><path stroke-dasharray="12.9676,12.9676" d="M246.6 160.5l50.4-50.4"/><path d="M301.6 105.5l4.5-4.5"/></g><path opacity=".5" fill="#701431" d="M297.3 92.5a53.2 53.2 0 0 1-73.5 73.5 53.2 53.2 0 1 0 73.5-73.5z"/><path fill="none" stroke="#647331" stroke-width="15.7" stroke-linecap="round" stroke-linejoin="round" stroke-miterlimit="10" d="M714 371v-8h-.8a38 38 0 0 1-29.3 12.7 55.3 55.3 0 0 1-53.5-55.6c0-31.5 25.5-56 53.5-56 13.3 0 23.8 6 29.3 12.5h.9v-9.3h23.2v125.9c0 41.2-24.3 58-53 58a53 53 0 0 1-49.5-32.9l21.4-8.9c3.8 9.1 13 20 28 20 18.5 0 29.9-11.5 29.9-32.9V369"/><path fill="none" stroke="#647331" stroke-width="15.7" stroke-linecap="round" stroke-linejoin="round" stroke-miterlimit="10" d="M715.8 320.1c0-19.6-13.1-34-29.8-34-17 0-31.1 14.4-31.1 34 0 19.5 14.2 33.6 31 33.6s29.9-14.1 29.9-33.6z"/><path fill="none" stroke="#647331" stroke-width="15.7" stroke-linecap="round" stroke-linejoin="round" stroke-miterlimit="10" d="M714 371v-8h-.8a38 38 0 0 1-29.3 12.7 55.3 55.3 0 0 1-53.5-55.6c0-31.5 25.5-56 53.5-56 13.3 0 23.8 6 29.3 12.5h.9v-9.3h23.2v125.9c0 41.2-24.3 58-53 58a53 53 0 0 1-49.5-32.9l21.4-8.9c3.8 9.1 13 20 28 20 18.5 0 29.9-11.5 29.9-32.9V369m1.7-48.8c0-19.6-13.1-34-29.8-34-17 0-31.1 14.4-31.1 34 0 19.5 14.2 33.6 31 33.6s29.9-14.1 29.9-33.6zm45.1-111.9h24.5v164h-24.5z"/><path fill="none" stroke="#647331" stroke-width="15.7" stroke-linecap="round" stroke-linejoin="round" stroke-miterlimit="10" d="M785.5 208.3v164h-24.6v-164h24.6zm105.7 130l19 12.7c-6 9-20.9 24.7-46.5 24.7a54.6 54.6 0 0 1-55.3-55.8c0-33.2 23.8-55.8 52.6-55.8 29 0 43.1 23 47.8 35.5l2.5 6.4-74.6 30.8c5.7 11.2 14.6 17 27 17s21.2-6.2 27.5-15.5z"/><path fill="none" stroke="#647331" stroke-width="15.7" stroke-linecap="round" stroke-linejoin="round" stroke-miterlimit="10" d="M832.7 318.2l49.9-20.7c-2.8-7-11-11.8-20.8-11.8-12.4 0-29.8 11-29.1 32.5z"/><path fill="none" stroke="#647331" stroke-width="15.7" stroke-linecap="round" stroke-linejoin="round" stroke-miterlimit="10" d="M891.2 338.3l19 12.7c-6 9-20.9 24.7-46.5 24.7a54.6 54.6 0 0 1-55.3-55.8c0-33.2 23.8-55.8 52.6-55.8 29 0 43.1 23 47.8 35.5l2.5 6.4-74.6 30.8c5.7 11.2 14.6 17 27 17s21.2-6.2 27.5-15.5zm-58.5-20l49.9-20.8c-2.8-7-11-11.8-20.8-11.8-12.4 0-29.8 11-29.1 32.5z"/><linearGradient id="k" gradientUnits="userSpaceOnUse" x1="683.9" y1="264.1" x2="683.9" y2="451.5"><stop offset="0" stop-color="#fff200"/><stop offset=".2" stop-color="#ffed00"/><stop offset=".4" stop-color="#ffe500"/><stop offset=".5" stop-color="gold"/><stop offset=".7" stop-color="#ffc40c"/><stop offset=".9" stop-color="#fbaa19"/><stop offset="1" stop-color="#f7941d"/></linearGradient><path fill="url(#k)" d="M714 267.3v9.3h-.8A38.7 38.7 0 0 0 684 264a55.5 55.5 0 0 0-53.5 56 55.3 55.3 0 0 0 53.5 55.6 38 38 0 0 0 29.3-12.7h.9v33.7c0 21.4-11.4 32.8-29.8 32.8-15 0-24.3-10.8-28.1-19.9l-21.4 8.9a53.2 53.2 0 0 0 49.5 33c28.7 0 53-17 53-58.2v-126h-23.2zm-28 86.4c-17 0-31.1-14.1-31.1-33.6 0-19.6 14.2-34 31-34s29.9 14.4 29.9 34c0 19.5-13.1 33.6-29.8 33.6z"/><linearGradient id="l" gradientUnits="userSpaceOnUse" x1="773.2" y1="208.3" x2="773.2" y2="372.3"><stop offset="0" stop-color="#fff200"/><stop offset=".2" stop-color="#ffed00"/><stop offset=".4" stop-color="#ffe500"/><stop offset=".5" stop-color="gold"/><stop offset=".7" stop-color="#ffc40c"/><stop offset=".9" stop-color="#fbaa19"/><stop offset="1" stop-color="#f7941d"/></linearGradient><path fill="url(#l)" d="M760.9 208.3h24.5v164h-24.5z"/><linearGradient id="m" gradientUnits="userSpaceOnUse" x1="773.2" y1="208.3" x2="773.2" y2="372.3"><stop offset="0" stop-color="#fff200"/><stop offset=".2" stop-color="#ffed00"/><stop offset=".4" stop-color="#ffe500"/><stop offset=".5" stop-color="gold"/><stop offset=".7" stop-color="#ffc40c"/><stop offset=".9" stop-color="#fbaa19"/><stop offset="1" stop-color="#f7941d"/></linearGradient><path fill="url(#m)" d="M785.5 208.3v164h-24.6v-164h24.6z"/><linearGradient id="n" gradientUnits="userSpaceOnUse" x1="859.8" y1="264.1" x2="859.8" y2="375.7"><stop offset="0" stop-color="#fff200"/><stop offset=".2" stop-color="#ffed00"/><stop offset=".4" stop-color="#ffe500"/><stop offset=".5" stop-color="gold"/><stop offset=".7" stop-color="#ffc40c"/><stop offset=".9" stop-color="#fbaa19"/><stop offset="1" stop-color="#f7941d"/></linearGradient><path fill="url(#n)" d="M863.7 353.7a28.4 28.4 0 0 1-27-16.9l74.6-30.8-2.5-6.4c-4.7-12.5-18.8-35.5-47.8-35.5-28.8 0-52.6 22.6-52.6 55.8a54.6 54.6 0 0 0 55.3 55.8 55.5 55.5 0 0 0 46.5-24.7l-19-12.7a31.9 31.9 0 0 1-27.5 15.4zm-1.9-68c9.8 0 18 4.8 20.8 11.8l-50 20.7a30.6 30.6 0 0 1 29.2-32.5z"/></svg>