<svg height="9965" viewBox="0 0 596.4 9965.0" width="596.4" xmlns="http://www.w3.org/2000/svg" xmlns:xlink="http://www.w3.org/1999/xlink"><g transform="translate(20 20)"><path d="M30.6 4.8h27.6v6.7H30.6z" fill="#906C29"/><path d="M53 4.8v10.6l12.3 5h48.3l8.5-5V4.8z" fill="#FFF"/><path d="M2.5 6.1L34 6" fill="none" stroke="#40491F" stroke-width="4.9"/><circle cx="40.3" cy="7.2" fill="#FFF" r="7.2"/></g><path d="M32.5 97c-1.5 1.6-1.9 3.8-1.2 6.5.4 1.4 1.1 3 2.1 4.4L20 121.3l4.3 4.3 13.4-13.4c4 3 8.7 3.7 11.1 1.2l36.2-36L68.7 61 32.5 97z" fill="#515D29"/><path d="M81.1 77.3L47 111.5c-1.6 1.5-5.8.6-9.4-3-1.7-1.8-3-3.9-3.5-5.8-.4-1.6-.3-3 .5-3.7l34.1-34 12.4 12.4z" fill="#FFF"/><g transform="translate(20 146)"><path d="M90.5 127.6H71.7a18 18 0 0 0-14.3 7.2 17.7 17.7 0 0 0-14.2-7.2H24.4c-9.8 0-17.7 8-17.7 17.7V181h101.5v-35.7c0-9.7-8-17.7-17.7-17.7z" fill="#4B2C14"/><path d="M37.8 80.2V9.9m39.3 70.3V9.9" fill="none" stroke="#96642F" stroke-width="7.7"/><circle cx="37.8" cy="9.9" fill="#96642F" r="9.9"/><circle cx="76.8" cy="9.9" fill="#96642F" r="9.9"/><linearGradient gradientUnits="userSpaceOnUse" id="a" x1="-.4" x2="115.6" y1="130.1" y2="130.1"><stop offset="0" stop-color="#A76E32"/><stop offset="0" stop-color="#A76E32"/><stop offset=".2" stop-color="#BA8144"/><stop offset=".3" stop-color="#C88F51"/><stop offset=".6" stop-color="#D09759"/><stop offset="1" stop-color="#D2995B"/></linearGradient><path d="M109.4 180.7h-10V109a42 42 0 0 0-84.1 0v71.7H5.9A6.3 6.3 0 0 0-.4 187c0 3.4 2.8 6.2 6.3 6.2h103.5a6.3 6.3 0 0 0 0-12.5z" fill="url(#a)"/><circle cx="40.7" cy="99" fill="#FFF" r="17.9"/><circle cx="40.7" cy="105.6" fill="#231F20" r="12.5"/><circle cx="74.3" cy="99" fill="#FFF" r="17.9"/><circle cx="74.3" cy="105.6" fill="#231F20" r="12.5"/><path d="M56.9 130.3c6.4 0 11.9-4 14.1-9.7H42.7c2.2 5.7 7.7 9.7 14.2 9.7z" fill="#231F20"/></g><g transform="translate(20 359)"><circle cx="10.7" cy="70" fill="#96642F" r="10.7"/><path d="M10.7 0v68.3" fill="none" stroke="#96642F" stroke-width="7.7"/></g><g transform="translate(20 460)"><circle cx="11.3" cy="11.3" fill="#96642F" r="11.3"/><path d="M43.3 111.8L11.5 12.1" fill="none" stroke="#96642F" stroke-width="7.7"/></g><path d="M26 640.2L67.2 599M26 599l41.2 41.2" fill="none" stroke="#749948" stroke-linecap="round" stroke-width="12"/><path d="M213.8 718.8a20 20 0 0 0-32.5-15.5 25 25 0 0 0-28.7-7.7 51.8 51.8 0 0 0-90.2-4.5 30.1 30.1 0 0 0-42.2 31.2h193.3c.2-1.1.3-2.3.3-3.5zM186.5 785a42 42 0 0 0-81.2-15.4 22.9 22.9 0 0 0-23.7 1.2 32.4 32.4 0 0 0-61.3 18.5h166l.2-4.2z" fill="#FFF"/><g transform="translate(20 810)"><defs><path d="M42.8 130.3a31.3 31.3 0 0 1 23.2-9.1 31.3 31.3 0 0 1-32.3 32.3 31.3 31.3 0 0 1 9.1-23.2z" fill="#F9EC31" id="b"/><path d="M23 130.3a31.3 31.3 0 0 0-23.2-9.1 31.3 31.3 0 0 0 32.4 32.3c.3-8.3-2.8-16.8-9.2-23.2z" fill="#F9EC31" id="c"/></defs><path d="M33 432V0" fill="none" stroke="#F9EC31" stroke-width="2"/><use xlink:href="#b"/><use transform="translate(0 -38.5)" xlink:href="#b"/><use transform="translate(0 -77)" xlink:href="#b"/><use transform="translate(0 -115.5)" xlink:href="#b"/><use xlink:href="#c"/><use transform="translate(0 -38.5)" xlink:href="#c"/><use transform="translate(0 -77)" xlink:href="#c"/><use transform="translate(0 -115.5)" xlink:href="#c"/></g><g transform="translate(20 1262)"><path d="M23.7 57.9l-5.9 15.6h8" fill="none" stroke="#40491F" stroke-linecap="round" stroke-linejoin="round" stroke-width="5"/><linearGradient gradientUnits="userSpaceOnUse" id="d" x1="11.1" x2="48.8" y1="31.1" y2="31.1"><stop offset="0" stop-color="#798D39"/><stop offset=".2" stop-color="#849A3D"/><stop offset=".7" stop-color="#98B146"/><stop offset="1" stop-color="#9FBA49"/></linearGradient><path d="M20.8 0l-9.4 45.4A14 14 0 0 0 38.8 51l9.6-46.2c.3-1.4.5-2.8.4-4.8h-28z" fill="url(#d)"/><path d="M18.6 10.5L46 16.2l-1.4 6.6L17.2 17zM15.8 24l27.4 5.7-1.4 6.6-27.4-5.7zM13 37.4l27.4 5.7-1.4 6.6L11.6 44z" fill="#7F8D38"/><path d="M29 56l9.2 6.8L32 78.5h8.7" fill="none" stroke="#40491F" stroke-linecap="round" stroke-linejoin="round" stroke-width="5"/><path d="M4 33.7C0 48.3-1 61.4.8 68l5-2.8 2.9 5C13.5 65.4 19 53.4 23 38.7c5-18.6 5.3-35 1-38.1l-4 .2C14.9 4.2 8.3 17.3 4 33.7zM20 .8l4-.2c-.2-.3-.6-.4-1-.5-.8-.3-1.9 0-3 .7z" fill="#6F8036"/><path d="M13.6 35L5.7 65.2" fill="none" stroke="#54612B" stroke-linecap="round" stroke-width="2"/></g><g transform="translate(20 1363)"><path d="M44 112.6A64.6 64.6 0 0 1 6.3 71c-9-27.7-.6-56 18.7-68.2" fill="none" stroke="#647331" stroke-linecap="round" stroke-width="5.5"/><linearGradient gradientUnits="userSpaceOnUse" id="e" x1="36" x2="174" y1="126.6" y2="126.6"><stop offset="0" stop-color="#798D39"/><stop offset=".2" stop-color="#849A3D"/><stop offset=".7" stop-color="#98B146"/><stop offset="1" stop-color="#9FBA49"/></linearGradient><path d="M135.2 86h-59A40.3 40.3 0 0 0 36 125.5v1.7A40.6 40.6 0 0 0 76.2 167h6.5l-.1.3c10-.8 20-1.3 29.7-.3h22.9a39.5 39.5 0 0 0 38.8-39.8v-1.8A39.2 39.2 0 0 0 135.2 86z" fill="url(#e)"/><path d="M149.8 157.5a18 18 0 0 1-14.5-17.7" fill="none" stroke="#7E923D" stroke-linecap="round" stroke-width="4.7"/><circle cx="90.5" cy="109.1" fill="#FFF" r="29.1"/><circle cx="95" cy="100.3" fill="#424D21" r="20.3"/><path d="M49.4 106.5a66.3 66.3 0 0 1-19.5-47c-.5-24.1 10.4-45 26.6-55" fill="none" stroke="#647331" stroke-linecap="round" stroke-width="5.5"/><path d="M61.3 83.7a41.2 41.2 0 0 1 25.1-15.2" fill="none" stroke="#424D21" stroke-linecap="round" stroke-width="6.3"/></g><g transform="translate(20 1550)"><path d="M98.4 164.7l-10.9-19.4-4.8 2.6 10.8 19.4z" fill="#906C29"/><path d="M91.5 163.6l7.6-4 8.4 6.7 19 34-.2 7.9-7.7 4z" fill="#FFF"/><path d="M72.6 127.5l12.3 22.3" fill="none" stroke="#40491F" stroke-width="3"/><path d="M85.4 158.8c2.9 1.6 6.5.5 8-2.3s.6-6.3-2.3-7.8-6.5-.6-8 2.3-.6 6.3 2.3 7.8z" fill="#FFF"/><path d="M8.3 80.6a25 25 0 0 1 39.1-14.9 31 31 0 0 1-1 21.7 29.7 29.7 0 0 1-26 19.2 24.2 24.2 0 0 1-12.1-26z" fill="#6F8036"/><path d="M123.1 70.3a35 35 0 0 0-19.6-15.4" fill="none" stroke="#424D21" stroke-linecap="round" stroke-width="4"/><path d="M120 80.6a25 25 0 0 0-39-14.9 31 31 0 0 0 1 21.7 29.7 29.7 0 0 0 26 19.2c9-5 14.2-15.4 12-26z" fill="#6F8036"/><path d="M57 139.1c-8-6-19.2-4.6-25.3 3-1.6 2-2.6 4.1-3.2 6.3" fill="none" stroke="#40491F" stroke-width="3"/><linearGradient gradientTransform="matrix(-1 -.0049 -.0049 1 283 34.2)" gradientUnits="userSpaceOnUse" id="f" x1="205.8" x2="229.8" y1="109.5" y2="109.5"><stop offset="0" stop-color="#798D39"/><stop offset=".2" stop-color="#849A3D"/><stop offset=".7" stop-color="#98B146"/><stop offset="1" stop-color="#9FBA49"/></linearGradient><path d="M61.4 172h6.1c5 .1 9-3.9 9-8.8l.2-41c0-5-4-9-8.9-9h-6.1c-5-.1-9 3.9-9 8.8l-.2 41c0 5 4 9 8.9 9z" fill="url(#f)"/><path d="M25.9 155.8a6 6 0 0 0 7.8-3c1.4-2.8 0-6.3-3-7.6s-6.4 0-7.8 2.9a5.9 5.9 0 0 0 3 7.7z" fill="#FFF"/><linearGradient gradientTransform="matrix(-1 0 0 1 287.1 0)" gradientUnits="userSpaceOnUse" id="g" x1="149.2" x2="267.1" y1="99.8" y2="99.8"><stop offset="0" stop-color="#798D39"/><stop offset=".2" stop-color="#849A3D"/><stop offset=".7" stop-color="#98B146"/><stop offset="1" stop-color="#9FBA49"/></linearGradient><path d="M20 100.5v-1.4a33.5 33.5 0 0 1 33.8-32.9h20.1a33.3 33.3 0 0 1 33.6 32.9v1.4c0 18.1-15 32.9-33.6 32.9H53.7A33.3 33.3 0 0 1 20 100.5z" fill="url(#g)"/><path d="M5 70.3a35 35 0 0 1 19.6-15.4" fill="none" stroke="#424D21" stroke-linecap="round" stroke-width="4"/><path d="M57.8 67.8c2.6-13-.6-28.3-10-41.6a54.2 54.2 0 0 0-46-24.4m70.2 66c-2.6-13 .6-28.3 10-41.6a54.2 54.2 0 0 1 46-24.4" fill="none" stroke="#647331" stroke-linecap="round" stroke-width="3.5"/><path d="M69.6 186c4.5-5 7.8-15.8 8-28.6.1-17.3-5.5-31.3-12.6-31.3-7.2 0-13.1 14-13.3 31.2-.1 12.7 2.9 23.6 7.3 28.5l5.3-3.3 5.3 3.5z" fill="#6F8036"/><path d="M64.3 156.4v26.1" fill="none" stroke="#54612B" stroke-linecap="round" stroke-width="1.6"/></g><g transform="translate(20 1783)"><path d="M72 67.8c-2.6-13 .6-28.3 10-41.6a54.2 54.2 0 0 1 46-24.4m-70.2 66c2.6-13-.6-28.3-10-41.6a54.2 54.2 0 0 0-46-24.4" fill="none" stroke="#647331" stroke-linecap="round" stroke-width="3.5"/><path d="M72.9 139.1c7.8-6 19.1-4.6 25.2 3 1.6 2 2.6 4.1 3.2 6.3" fill="none" stroke="#40491F" stroke-width="3"/><linearGradient gradientUnits="userSpaceOnUse" id="h" x1="53.1" x2="77.3" y1="144.7" y2="144.7"><stop offset="0" stop-color="#798D39"/><stop offset=".2" stop-color="#849A3D"/><stop offset=".7" stop-color="#98B146"/><stop offset="1" stop-color="#9FBA49"/></linearGradient><path d="M77 124.8c0-6.5-5.4-11.7-12-11.7s-12 5.4-12 11.8l.3 39.8c0 6.4 5.4 11.7 12 11.6a12 12 0 0 0 12-11.7l-.2-39.8z" fill="url(#h)"/><path d="M52.4 135.2h24v5.6h-24zm.1 11.5h24v5.6h-24zm0 11.5h24v5.6h-24z" fill="#7F8D38"/><path d="M34.6 174.9l7-21 5.3 1.7-7 21z" fill="#906C29"/><path d="M41.2 172.6l-8.3-2.6-7 8.1-12.4 36.8 1.6 7.7 8.3 2.6z" fill="#FFF"/><path d="M53.1 133.8l-8 24" fill="none" stroke="#40491F" stroke-linecap="round" stroke-width="3"/><path d="M46.3 166.8c-2.6 2-6.3 1.7-8.4-.8s-1.7-6.1.9-8.2c2.5-2 6.3-1.6 8.3.9s1.7 6.1-.8 8.1zm57.7-11a6 6 0 0 1-8-3 5.7 5.7 0 0 1 3-7.6 6 6 0 0 1 7.9 2.9c1.3 2.9 0 6.3-3 7.7z" fill="#FFF"/><linearGradient gradientUnits="userSpaceOnUse" id="i" x1="-8.2" x2="109.7" y1="99.8" y2="99.8"><stop offset="0" stop-color="#798D39"/><stop offset=".2" stop-color="#849A3D"/><stop offset=".7" stop-color="#98B146"/><stop offset="1" stop-color="#9FBA49"/></linearGradient><path d="M109.7 100.5v-1.4a33.3 33.3 0 0 0-33.6-32.9H56a33.3 33.3 0 0 0-33.7 32.9v1.4A33.4 33.4 0 0 0 56 133.4h20a33.3 33.3 0 0 0 33.6-32.9z" fill="url(#i)"/><path d="M119.7 80.6a25 25 0 0 0-39.1-14.9 31 31 0 0 0 1 21.7 29.7 29.7 0 0 0 26 19.2c9-5 14.3-15.4 12.1-26z" fill="#FFF"/><path d="M111 82.8c4.8 8 2.8 18-4.6 22.4-7.5 4.3-17.5 1.3-22.4-6.7S81.1 80.4 88.5 76c7.5-4.3 17.5-1.3 22.4 6.8z" fill="#424D21"/><path d="M6.6 70.3a35 35 0 0 1 19.7-15.4m97.1 15.4a35 35 0 0 0-19.6-15.4" fill="none" stroke="#424D21" stroke-linecap="round" stroke-width="4"/><path d="M9.7 80.6a25 25 0 0 1 39.2-14.9 31 31 0 0 1-1.1 21.7 29.7 29.7 0 0 1-26 19.2 24.2 24.2 0 0 1-12.1-26z" fill="#FFF"/><path d="M18.4 82.8c-4.9 8-2.9 18 4.6 22.4 7.4 4.3 17.4 1.3 22.3-6.7s3-18.1-4.5-22.5c-7.4-4.3-17.4-1.3-22.4 6.8z" fill="#424D21"/><path d="M49.6 118.8a19.3 19.3 0 0 0 31 0" fill="none" stroke="#727C37" stroke-linecap="round" stroke-width="3"/></g><g transform="translate(20 2029)"><path d="M39 98.7l7.7 5.6-3.9 10h5.4" fill="none" stroke="#41491F" stroke-linecap="round" stroke-linejoin="round" stroke-width="3"/><path d="M24.3 36.1c-6-.6-12-4.4-15.8-10.7C3.3 17 3.8 7.1 9.2 1.5" fill="none" stroke="#F5E035" stroke-linecap="round" stroke-width="3"/><path d="M28.5 35.7a22.5 22.5 0 0 1-10.2-14c-2-7.8-.1-15.6 4.4-20.2" fill="none" stroke="#F5E035" stroke-linecap="round" stroke-width="3"/><linearGradient gradientUnits="userSpaceOnUse" id="j" x1="54.1" x2="54.1" y1="26.5" y2="106.7"><stop offset="0" stop-color="#EFDD37"/><stop offset=".1" stop-color="#E0D63C"/><stop offset=".5" stop-color="#BDC744"/><stop offset=".8" stop-color="#A7BE48"/><stop offset="1" stop-color="#A0BA49"/></linearGradient><path d="M95 66.6c2.6-4 4.2-8.8 4.2-14v-1a25 25 0 0 0-25-25H36.6a25 25 0 0 0-25 25v1c0 4.8 1.3 9.2 3.6 13C5.8 70 0 75.9 0 82.5c0 13.4 24.2 24.2 54 24.2s54.1-10.8 54.1-24.2c0-6.1-5-11.7-13.2-16z" fill="url(#j)"/><ellipse cx="55.2" cy="49.9" fill="#FFF" rx="15.7" ry="18.5" transform="rotate(-87.9 55.2 49.9)"/><ellipse cx="55.4" cy="50" fill="#424D21" rx="10.9" ry="12.9" transform="rotate(-87.9 55.4 50)"/><path d="M33 39.4a26.3 26.3 0 0 1 16-9.7" fill="none" stroke="#424D21" stroke-linecap="round" stroke-width="4"/><path d="M49.9 105.1l5.9 4.3-3.9 8h5.4" fill="none" stroke="#41491F" stroke-linecap="round" stroke-linejoin="round" stroke-width="3"/></g><g transform="translate(20 2168)"><defs><g id="k"><ellipse fill="#FFF" rx="6.4" ry="6.4"/><ellipse rx="4.4" ry="4.4"/></g></defs><g fill="#F7941D"><path d="M88.5 33.8a15 15 0 0 0-29.8 0v12.5a15 15 0 1 0 29.8 0V33.8zM290 28.2a19.2 19.2 0 0 0-38.4 0v16a19.2 19.2 0 0 0 38.4 0v-16zM212.3 37a15 15 0 0 0-29.8 0v12.4a15 15 0 0 0 29.8 0V37zm111.4 0a15 15 0 0 0-29.8 0v12.4a15 15 0 0 0 29.8 0V37zm110.4-12.8a.9.9 0 0 1-.8-.5l-8.8-17.8a.9.9 0 0 1 1.6-.8l8.8 17.8a.9.9 0 0 1-.8 1.3z"/><circle cx="425.3" cy="5.5" r="2.6"/><path d="M438.5 24.2c.3 0 .6-.2.8-.5L448 5.9a.9.9 0 0 0-1.6-.8L437.7 23a.9.9 0 0 0 .8 1.3z"/><circle cx="447.3" cy="5.5" r="2.6"/><path d="M451.6 45.3a15 15 0 1 1-29.8 0V32.8h29.8v12.5zm-29.8-12.2a15 15 0 1 1 29.8 0"/></g><use x="67.7" xlink:href="#k" y="30.5"/><use x="79.6" xlink:href="#k" y="30.5"/><path d="M73.6 41.4c2.3 0 4.2-1.4 5-3.4h-10c.8 2 2.7 3.4 5 3.4z"/><path d="M61.9 43s12 4 24 0m-24 4.6s12 4 24 0" fill="none" stroke="#252656" stroke-width="1.1"/><path d="M491.8 46.3a15 15 0 1 1-29.9 0V33.8h29.9v12.5zM461.9 34a15 15 0 1 1 29.9 0"/><use x="470.9" xlink:href="#k" y="30.5"/><use x="482.8" xlink:href="#k" y="30.5"/><path d="M476.8 41.4c2.3 0 4.3-1.4 5-3.4h-10c.8 2 2.7 3.4 5 3.4z" fill="#FFF"/><path d="M465.1 43s12 4 24.1 0m-24.1 4.6s12 4 24.1 0" fill="none" stroke="#252656" stroke-width="1.1"/><path d="M39.2 22.3A18.6 18.6 0 0 1 54.6 1.1a14.9 14.9 0 0 1 17 12.3m-38.3 8.9A18.6 18.6 0 0 0 18 1.1 14.9 14.9 0 0 0 1 13.4" fill="none" stroke="#647331" stroke-linecap="round" stroke-width="1.8"/><path d="M51.4 35a15 15 0 0 0-29.8 0v12.4a15 15 0 0 0 29.9 0V35z" fill="#5D833A"/><use x="30.6" xlink:href="#k" y="31.6"/><use x="42.5" xlink:href="#k" y="31.6"/><ellipse cx="42.2" cy="31.8" rx="4.3" ry="4.8"/><path d="M36.5 42.5c2.3 0 4.3-1.4 5-3.4h-10c.8 2 2.7 3.4 5 3.4z"/><path d="M24.8 44.1s12 4 24.1 0" fill="none" stroke="#252656" stroke-width="1.1"/><path d="M118.8 31.4l8.8-17.7" fill="none" stroke="#000" stroke-width="1.4"/><circle cx="127.4" cy="13.7" r="2.6"/><path d="M115.5 31.4l-8.8-17.7" fill="none" stroke="#000" stroke-width="1.4"/><circle cx="106.9" cy="13.7" r="2.6"/><circle cx="117.3" cy="41" r="13.9"/><use x="111.3" xlink:href="#k" y="38.9"/><use x="123.2" xlink:href="#k" y="38.9"/><path d="M117.3 49.8c2.3 0 4.2-1.5 5-3.5h-10c.7 2 2.7 3.5 5 3.5z" fill="#FFF"/><path d="M255.7 40s15.5 5.2 31 0m-31 6s15.5 5.2 31 0" fill="none" stroke="#252656" stroke-width="1.4"/><use x="265.2" xlink:href="#k" y="20"/><use x="277.1" xlink:href="#k" y="20"/><path d="M271.2 31.6c2.3 0 4.3-1.5 5-3.5h-10c.8 2 2.8 3.5 5 3.5z"/><use x="191.5" xlink:href="#k" y="33.7"/><use x="203.4" xlink:href="#k" y="33.7"/><path d="M197.4 44.6c2.3 0 4.2-1.4 5-3.4h-10c.8 2 2.7 3.4 5 3.4z"/><path d="M185.7 46.2s12 4 24 0m-24 4.6s12 4 24 0" fill="none" stroke="#252656" stroke-width="1.1"/><use x="302.9" xlink:href="#k" y="33.7"/><use x="314.8" xlink:href="#k" y="33.7"/><path d="M308.8 44.6c2.3 0 4.2-1.4 5-3.4h-10c.7 2 2.7 3.4 5 3.4z"/><path d="M297 46.2s12.1 4 24.2 0M297 50.8s12.1 4 24.2 0" fill="none" stroke="#252656" stroke-width="1.1"/><path d="M231.9 20.8l8.9-17.7" fill="none" stroke="#000" stroke-width="1.4"/><circle cx="240.6" cy="3.1" r="2.6"/><path d="M228.7 20.8l-8.9-17.7" fill="none" stroke="#000" stroke-width="1.4"/><circle cx="220.1" cy="3.1" r="2.6"/><circle cx="230.4" cy="30.5" r="13.9"/><use x="224.4" xlink:href="#k" y="28.3"/><use x="236.4" xlink:href="#k" y="28.3"/><path d="M230.4 39.2c2.3 0 4.2-1.4 5-3.4h-10c.8 2 2.7 3.4 5 3.4z" fill="#FFF"/><circle cx="230.8" cy="49.5" r="7.5"/><circle cx="230.8" cy="60.2" r="7.5"/><path d="M175.9 34.3a15 15 0 0 0-29.8 0v12c0 8 6.1 15 14.2 15.4a15 15 0 0 0 15.6-15V34.5z"/><use x="155.1" xlink:href="#k" y="31"/><use x="167" xlink:href="#k" y="31"/><path d="M161 41.9c2.2 0 4.2-1.4 5-3.4h-10c.8 2 2.7 3.4 5 3.4z" fill="#FFF"/><path d="M523 26a18.6 18.6 0 0 1 15.5-21.3 14.9 14.9 0 0 1 17 12.4M517.2 26a18.6 18.6 0 0 0-15.4-21.3 14.9 14.9 0 0 0-17 12.4" fill="none" stroke="#252915" stroke-linecap="round" stroke-width="1.8"/><path d="M535.3 51a15 15 0 1 1-29.8 0V38.6h29.8V51zm-29.8-12.2a15 15 0 1 1 29.8 0" fill="#A56527"/><use x="514.5" xlink:href="#k" y="35.3"/><use x="526.4" xlink:href="#k" y="35.3"/><ellipse cx="526.1" cy="35.4" rx="4.3" ry="4.8"/><path d="M520.4 46.2c2.3 0 4.2-1.5 5-3.5h-10c.8 2 2.7 3.5 5 3.5z"/><path d="M508.7 47.8s12 4 24 0" fill="none" stroke="#252656" stroke-width="1.1"/><use x="430.8" xlink:href="#k" y="29.5"/><use x="442.7" xlink:href="#k" y="29.5"/><path d="M436.7 40.4c2.3 0 4.2-1.4 5-3.4h-10c.8 2 2.7 3.4 5 3.4z"/><path d="M425 42s12 4 24 0m-24 4.7s12 4 24 0" fill="none" stroke="#252656" stroke-width="1.1"/><path d="M411.4 65.2v-2l-79.1.4V65a39.4 39.4 0 1 1 78.8 0" fill="#D6AE2C"/><use x="366.1" xlink:href="#k" y="35.8"/><use x="378.1" xlink:href="#k" y="35.8"/><path d="M372.2 47.3c2.2 0 4.2-1.4 5-3.4h-10c.7 2 2.7 3.4 5 3.4z"/><path d="M357.4 35.6a.9.9 0 0 1-.8-.5l-8.9-17.7a.9.9 0 0 1 1.6-.8l8.9 17.7a.9.9 0 0 1-.8 1.3z" fill="#D6AE2C"/><circle cx="348.5" cy="17" fill="#D6AE2C" r="2.6"/><path d="M386 35.6c.3 0 .7-.2.8-.5l8.8-17.7a.9.9 0 0 0-1.6-.8l-8.8 17.7a.9.9 0 0 0 .8 1.3z" fill="#D6AE2C"/><circle cx="394.8" cy="17" fill="#D6AE2C" r="2.6"/></g><g transform="translate(20 2256)"><path d="M492.8 117.5h-7a12 12 0 0 1-12-12V44.8a12 12 0 0 1 12-12h7a12 12 0 0 1 12 12v60.7a12 12 0 0 1-12 12z" fill="#447D3B"/><use x="482.9" xlink:href="#k" y="43.6"/><use x="494.8" xlink:href="#k" y="43.6"/><path d="M489 55.1c2.2 0 4.2-1.4 5-3.4h-10c.7 2 2.7 3.4 5 3.4z"/><path d="M205.1 36.7L196.2 19" fill="none" stroke="#647331" stroke-linecap="round" stroke-width="1.8"/><circle cx="196.2" cy="19" fill="#647331" r="2.6"/><path d="M234.8 36.7l8.9-17.7" fill="none" stroke="#647331" stroke-linecap="round" stroke-width="1.8"/><circle cx="243.7" cy="19" fill="#647331" r="2.6"/><path d="M415.7 48.2c-3-19 9.9-36.9 28.9-39.9a28 28 0 0 1 31.9 23.2" fill="none" stroke="#647331" stroke-linecap="round" stroke-width="1.8"/><path d="M413 48.2a35 35 0 0 0-29-39.9 27.8 27.8 0 0 0-31.8 23.2" fill="none" stroke="#647331" stroke-linecap="round" stroke-width="1.8"/><circle cx="35.4" cy="18.9" fill="#647331" r="2.6"/><circle cx="43.8" cy="18.9" fill="#647331" r="2.6"/><path d="M35.4 37.7V18.9m8.4 18.8V18.9" fill="none" stroke="#647331" stroke-linecap="round" stroke-width="1.8"/><path d="M261.7 68.5V105l-79.1.4V68.2a39.4 39.4 0 1 1 78.8 0" fill="#A56527"/><path d="M460.2 76.3v42.5l-92.2.5V76a45.9 45.9 0 0 1 91.8 0" fill="#447D3B"/><path d="M79.2 72.5V109l-79.2.4V72.2a39.4 39.4 0 0 1 78.8 0" fill="#D6AE2C"/><path d="M134.9 44.9l8.9-17.7" fill="none" stroke="#647331" stroke-linecap="round" stroke-width="1.8"/><circle cx="143.6" cy="27.2" fill="#647331" r="2.6"/><circle cx="168.2" cy="29.1" fill="#647331" r="2.6"/><circle cx="176.6" cy="29.1" fill="#647331" r="2.6"/><path d="M128.8 44.9L120 27.2" fill="none" stroke="#647331" stroke-linecap="round" stroke-width="1.8"/><circle cx="120.2" cy="27.2" fill="#647331" r="2.6"/><path d="M140 108.6h-17a12 12 0 0 1-12-12v-47a12 12 0 0 1 12-12h17a12 12 0 0 1 12 12v47a12 12 0 0 1-12 12z" fill="#F7941D"/><circle cx="96.2" cy="75.3" fill="#619A41" r="12.3"/><circle cx="96.2" cy="96.3" fill="#619A41" r="12.3"/><use x="33.9" xlink:href="#k" y="42.7"/><use x="45.8" xlink:href="#k" y="42.7"/><path d="M39.9 54.2c2.3 0 4.2-1.4 5-3.4H35c.8 2 2.7 3.4 5 3.4z"/><use x="125.6" xlink:href="#k" y="46.2"/><use x="137.5" xlink:href="#k" y="46.2"/><path d="M131.6 57.7c2.3 0 4.2-1.4 5-3.4h-10c.8 2 2.7 3.4 5 3.4z"/><path d="M88 38.9l-8.8-17.7m22.4 17.7l8.8-17.7" fill="none" stroke="#647331" stroke-linecap="round" stroke-width="1.8"/><circle cx="95.7" cy="50.5" fill="#619A41" r="14"/><use x="89.8" xlink:href="#k" y="48.5"/><use x="101.7" xlink:href="#k" y="48.5"/><path d="M95.8 60c2.3 0 4.2-1.4 5-3.4h-10c.8 2 2.7 3.4 5 3.4z"/><circle cx="79.2" cy="21.2" fill="#647331" r="2.6"/><circle cx="281" cy="65.3" fill="#619A41" r="12.3"/><circle cx="281" cy="86.3" fill="#619A41" r="12.3"/><circle cx="281" cy="107.6" fill="#619A41" r="12.3"/><path d="M272.8 28.9L264 11.2m22.3 17.7l8.9-17.7" fill="none" stroke="#647331" stroke-linecap="round" stroke-width="1.8"/><circle cx="280.5" cy="40.5" fill="#619A41" r="14"/><use x="274.6" xlink:href="#k" y="38.5"/><use x="286.5" xlink:href="#k" y="38.5"/><path d="M280.6 50c2.3 0 4.2-1.4 5-3.4h-10c.8 2 2.7 3.4 5 3.4z"/><circle cx="264" cy="11.2" fill="#647331" r="2.6"/><circle cx="295.1" cy="11.2" fill="#647331" r="2.6"/><circle cx="110.1" cy="21.2" fill="#647331" r="2.6"/><path d="M350.7 15.8a14.9 14.9 0 0 0-17-12.4 18.6 18.6 0 0 0-15.5 21.3v7m-38.8-18.3a14.9 14.9 0 0 1 17-12.3 18.6 18.6 0 0 1 15.5 21.2v9.4" fill="none" stroke="#647331" stroke-linecap="round" stroke-width="1.8"/><path d="M113.3 62.9h35m-35 6.1h35m-35 6.3h35" fill="none" stroke="#A56527"/><use x="215.1" xlink:href="#k" y="39.4"/><use x="227.1" xlink:href="#k" y="39.4"/><path d="M221.2 51c2.3 0 4.2-1.5 5-3.5h-10c.7 2 2.7 3.4 5 3.4z"/><use x="407.7" xlink:href="#k" y="40.3"/><use x="419.6" xlink:href="#k" y="40.3"/><path d="M413.7 51.8c2.3 0 4.2-1.4 5-3.4h-10c.8 2 2.7 3.4 5 3.4z"/><path d="M168.2 47.9V29.1m8.4 18.8V29.1" fill="none" stroke="#647331" stroke-linecap="round" stroke-width="1.8"/><path d="M172.9 45.5a15 15 0 0 0-15 14.9v42.9c0 8 6.3 15 14.3 15.3a15 15 0 0 0 15.6-14.9V60.4a15 15 0 0 0-15-15z" fill="#619A41"/><use x="167" xlink:href="#k" y="56.8"/><use x="178.9" xlink:href="#k" y="56.8"/><path d="M172.9 67.7c2.2 0 4.2-1.4 5-3.4h-10c.8 2 2.7 3.4 5 3.4z"/><path d="M161.2 69.3s12 4 24 0m-24 4.7s12 4 24 0" fill="none" stroke="#252656" stroke-width="1.1"/><path d="M318.7 114.5h-7a12 12 0 0 1-12-12V41.8a12 12 0 0 1 12-12h7a12 12 0 0 1 12 12v60.7a12 12 0 0 1-12 12z" fill="#447D3B"/><use x="308.8" xlink:href="#k" y="40.6"/><use x="320.7" xlink:href="#k" y="40.6"/><path d="M314.8 52.1c2.3 0 4.3-1.4 5-3.4h-10c.8 2 2.8 3.4 5 3.4z"/><path d="M299.7 58.3h31m-31 12.8h31m-31-6.6h31m-31 13.2h31m41.2-16.2h86.4m-86.4 6.2h86.4m-86.4 7h86.4" fill="none" stroke="#2E4F25"/><path d="M349.7 39a15 15 0 0 0-15 15v46a15 15 0 1 0 30 0V54a15 15 0 0 0-15-14.9z" fill="#5D833A"/><use x="343.8" xlink:href="#k" y="50.4"/><use x="355.7" xlink:href="#k" y="50.4"/><ellipse cx="355.4" cy="50.5" rx="4.3" ry="4.8" transform="rotate(-89.7 355.4 50.5)"/><path d="M349.7 61.3c2.3 0 4.2-1.5 5-3.5h-10c.8 2 2.7 3.5 5 3.5z"/></g><path d="M48.1 2396c-14.5-.7-27 16-28 37.4s9.9 39.1 24.4 39.8c14.4.7 27-16 28-37.4 1-21.3-10-39.1-24.4-39.8zm12.5 37.6c-.5 10.6-7.3 19-15.2 18.6-7.8-.3-13.8-9.3-13.3-20 .5-10.6 7.3-19 15.2-18.6 7.9.3 13.8 9.3 13.3 20zM20 2503l26.2-9-3.7 80h-17l5.8-63-9.4 3.3zm4.4 116.7l-4.4-14.4s23.8-22.4 42-4c23.4 23.7-27.2 53-27.2 53l36-2.7v14.7H20v-16.1s33.5-25.4 31.1-33.4-14.9-11-26.7 2.9zm-2.5 67.3l-1.9 14.5s26.3-7.3 29 8.5c2 11.2-24 6.8-24 6.8l-1.4 12s23.4-.4 25.4 8.7c3.2 14.4-27.6 8.8-27.6 8.8l-1.4 12c0-.5 54.4 11 50.5-17C68.7 2728.4 56 2725 56 2725s12.4-10 8.5-24.6-22.8-13.4-42.6-13.4zm48.7 125.6l6.5-31.6H56.3L20 2818.2v7.8h30l-3.7 26.7h16.2l5.4-26.7h14.5l3-13.3H70.6zm-18.6-.5h-9.4l10.8-10.1-1.4 10zm-5 88.4c-3 0-6 .5-8.8 1.3l2.3-10.5 26.5.5 1.5-17.4-39-1.4-9.5 40.6 1.8.7 12.5 4.7a13 13 0 0 1 12-8c7 0 12.7 5.6 12.7 12.4s-5.7 12.4-12.8 12.4a13 13 0 0 1-8.6-3.3 15.6 15.6 0 0 1-5.6-8.5 76.5 76.5 0 0 1-12 5s1 7 6.3 12.7c2.7 2.9 6.5 5.5 11.8 6.7 2.8.8 5.8 1.2 8.9 1.2 15.5 0 28-11 28-24.5 0-13.6-12.5-24.6-28-24.6zm-.3 95.1c-1.3 0-2.5 0-3.7.2a41 41 0 0 1 16.4-15.6L46.8 2970s-31.5 19.4-26.1 55.3a26.7 26.7 0 0 0 26 25.1 26.8 26.8 0 0 0 26.1-27.4 26.8 26.8 0 0 0-26.1-27.4zm-.7 39.6c-5.6 0-10.1-5.6-10.5-12.6l.3-3.8c1.1-6 5.3-10.3 10.2-10.3 5.8 0 10.6 6 10.6 13.3s-4.7 13.4-10.6 13.4zM23.5 3071H66l-22.3 76.8H29l14.8-60.2-23.8.4zm46.8 135.1c5-4 8.3-9.5 8.8-15.7.9-12.3-9.7-22.4-24.1-22.4s-26.8 10-28 22.4a18.9 18.9 0 0 0 6 15.7 26.3 26.3 0 0 0-13 19.1c-1.2 13.6 11.1 24.8 27.7 24.8s31-11 32-24.7c.7-7.7-3-14.6-9.4-19zm-30.2-15.7c.5-5.6 6.2-10.1 12.7-10.1s11.4 4.5 10.9 10.1c-.5 5.7-6.2 10.2-12.7 10.2-6.6 0-11.4-4.6-10.9-10.2zm24 34c-.6 6.3-7.2 11.5-14.7 11.5s-13-5.2-12.5-11.5c.6-6.4 7.2-11.5 14.6-11.5s13 5.1 12.5 11.5zm-14.3 45.8a26.8 26.8 0 0 0-29.5 23.8 26.8 26.8 0 0 0 26 30.9 41 41 0 0 1-18.4 13.2l11.3 11.8s33.7-15 33.1-51.3a26.7 26.7 0 0 0-22.5-28.4zm7.3 29l-.8 3.9c-1.9 5.6-6.6 9.4-11.5 8.8-5.8-.8-9.6-7.4-8.7-14.7 1-7.3 6.5-12.5 12.2-11.8 5.6.7 9.4 6.9 8.8 13.9z" fill="#FFF"/><g transform="translate(20 3370)"><defs><path d="M3313.9-270.9q-17.7-17.7-42.7-17.7-25 0-42.6 17.7-17.7 17.7-17.7 42.7h120.7q0-25-17.7-42.7z" fill="#673B1A" id="l" transform="translate(-706.4 63.5) scale(.21997)"/></defs><use transform="matrix(2.64 0 0 2.64 94.8 42)" xlink:href="#l"/></g><g transform="translate(20 3479)"><use transform="matrix(1.96 0 0 1.96 103.8 50.9)" xlink:href="#l"/><use transform="translate(132.7 56) scale(1.57999)" xlink:href="#l"/><use transform="translate(84.7 56) scale(1.57999)" xlink:href="#l"/></g><g transform="translate(20 3588)"><defs><path d="M3573.3-788.8q-5.5 5.5-5.5 13.4h37.8q0-7.9-5.5-13.4t-13.4-5.5q-7.8 0-13.3 5.5z" fill="#673B1A" id="m" transform="matrix(.34 0 0 .34 -1213 270)"/></defs><use transform="matrix(1.96 0 0 1.96 103.8 50.8)" xlink:href="#l"/><use transform="translate(141.7 56) scale(1.57999)" xlink:href="#l"/><use transform="matrix(1.15 0 0 1.15 178.3 61.6)" xlink:href="#l"/><use transform="translate(49.3 61) scale(1.18999)" xlink:href="#l"/><use transform="matrix(1.04 0 0 1.04 28.6 63)" xlink:href="#l"/><use transform="translate(203.3 64.3) scale(.93999)" xlink:href="#l"/><use transform="matrix(.7 0 0 .7 221.3 67.5)" xlink:href="#l"/><use transform="translate(75.8 56) scale(1.57999)" xlink:href="#l"/><use transform="translate(237.6 80.4) scale(1.31995)" xlink:href="#m"/><use transform="rotate(-1 4502.7 39.6) scale(1.75997)" xlink:href="#m"/></g><g transform="translate(20 3697)"><use transform="matrix(1.96 0 0 1.96 103.8 50.8)" xlink:href="#l"/><use transform="translate(141.7 56) scale(1.57999)" xlink:href="#l"/><use transform="matrix(1.15 0 0 1.15 178.3 61.6)" xlink:href="#l"/><use transform="translate(49.3 61) scale(1.18999)" xlink:href="#l"/><use transform="matrix(1.04 0 0 1.04 28.6 63)" xlink:href="#l"/><use transform="translate(203.3 64.3) scale(.93999)" xlink:href="#l"/><use transform="matrix(.7 0 0 .7 224 67.5)" xlink:href="#l"/><use transform="translate(75.8 56) scale(1.57999)" xlink:href="#l"/><use transform="translate(237.6 80.4) scale(1.31995)" xlink:href="#m"/><use transform="rotate(-1 4502.7 39.6) scale(1.75997)" xlink:href="#m"/></g><g transform="translate(20 3806)"><use transform="matrix(1.96 0 0 1.96 103.8 50.8)" xlink:href="#l"/><use transform="translate(137.7 56) scale(1.57999)" xlink:href="#l"/><use transform="matrix(1.15 0 0 1.15 158.3 61.6)" xlink:href="#l"/><use transform="translate(64.3 61) scale(1.18999)" xlink:href="#l"/><use transform="translate(79.8 56) scale(1.57999)" xlink:href="#l"/><use transform="rotate(-1 3171.2 -3877) scale(1.75999)" xlink:href="#m"/></g><g transform="translate(20 3915)"><use transform="matrix(1.96 0 0 1.96 103.8 50.8)" xlink:href="#l"/><use transform="translate(140.7 56) scale(1.57999)" xlink:href="#l"/><use transform="matrix(1.15 0 0 1.15 167 61.6)" xlink:href="#l"/><use transform="translate(57.7 61) scale(1.18999)" xlink:href="#l"/><use transform="matrix(1.04 0 0 1.04 47.6 63)" xlink:href="#l"/><use transform="translate(181.8 64.3) scale(.93999)" xlink:href="#l"/><use transform="translate(76.8 56) scale(1.57999)" xlink:href="#l"/><use transform="rotate(-1 2855.3 -10083.6) scale(1.31998)" xlink:href="#m"/><use transform="rotate(-96.5 51.8 -4.3) scale(1.75996)" xlink:href="#m"/></g><g transform="translate(20 4024)"><use transform="matrix(1.96 0 0 1.96 103.8 50.8)" xlink:href="#l"/><use transform="translate(141.7 56) scale(1.57999)" xlink:href="#l"/><use transform="matrix(1.15 0 0 1.15 173.3 61.6)" xlink:href="#l"/><use transform="translate(53 61) scale(1.18999)" xlink:href="#l"/><use transform="matrix(1.04 0 0 1.04 41.6 63)" xlink:href="#l"/><use transform="translate(193.7 64.3) scale(.93999)" xlink:href="#l"/><use transform="matrix(.7 0 0 .7 209.6 67.5)" xlink:href="#l"/><use transform="translate(75.8 56) scale(1.57999)" xlink:href="#l"/><use transform="rotate(94.8 89.7 106.2) scale(1.31957)" xlink:href="#m"/><use transform="rotate(-177.4 34.3 12.3) scale(1.7597)" xlink:href="#m"/></g><g transform="translate(20 4133)"><use transform="matrix(1.96 0 0 1.96 103.8 50.8)" xlink:href="#l"/><use transform="translate(141.7 56) scale(1.57999)" xlink:href="#l"/><use transform="matrix(1.15 0 0 1.15 177.1 61.6)" xlink:href="#l"/><use transform="translate(50.2 61) scale(1.18999)" xlink:href="#l"/><use transform="matrix(1.04 0 0 1.04 36.8 63)" xlink:href="#l"/><use transform="translate(200.8 64.3) scale(.93999)" xlink:href="#l"/><use transform="matrix(.7 0 0 .7 213.3 67.5)" xlink:href="#l"/><use transform="translate(75.7 56) scale(1.57999)" xlink:href="#l"/><use transform="rotate(175.9 108.3 17.8) scale(1.31965)" xlink:href="#m"/><use transform="rotate(116.6 26 19.8) scale(1.75761)" xlink:href="#m"/></g><g transform="translate(20 4242)"><use transform="matrix(1.96 0 0 1.96 103.8 50.8)" xlink:href="#l"/><use transform="translate(141.7 56) scale(1.57999)" xlink:href="#l"/><use transform="matrix(1.15 0 0 1.15 178.3 61.6)" xlink:href="#l"/><use transform="translate(49.3 61) scale(1.18999)" xlink:href="#l"/><use transform="matrix(1.04 0 0 1.04 33 63)" xlink:href="#l"/><use transform="translate(203.3 64.3) scale(.93999)" xlink:href="#l"/><use transform="matrix(.7 0 0 .7 216.7 67.5)" xlink:href="#l"/><use transform="translate(75.8 56) scale(1.57999)" xlink:href="#l"/><use transform="rotate(-117.8 118.5 -50.2) scale(1.31816)" xlink:href="#m"/><use transform="rotate(65.2 15 29.4) scale(1.75775)" xlink:href="#m"/></g><g transform="translate(20 4351)"><use transform="matrix(1.96 0 0 1.96 103.8 50.8)" xlink:href="#l"/><use transform="translate(141.7 56) scale(1.57999)" xlink:href="#l"/><use transform="matrix(1.15 0 0 1.15 178.3 61.6)" xlink:href="#l"/><use transform="translate(49.3 61) scale(1.18999)" xlink:href="#l"/><use transform="matrix(1.04 0 0 1.04 30.3 63)" xlink:href="#l"/><use transform="translate(203.3 64.3) scale(.93999)" xlink:href="#l"/><use transform="matrix(.7 0 0 .7 219.3 67.5)" xlink:href="#l"/><use transform="translate(75.8 56) scale(1.57999)" xlink:href="#l"/><use transform="rotate(-66.4 134.3 -151.3) scale(1.31836)" xlink:href="#m"/><use transform="rotate(28.3 -28.1 45.9) scale(1.75752)" xlink:href="#m"/></g><g transform="translate(20 4460)"><use transform="matrix(1.96 0 0 1.96 103.8 50.8)" xlink:href="#l"/><use transform="translate(141.7 56) scale(1.57999)" xlink:href="#l"/><use transform="matrix(1.15 0 0 1.15 178.3 61.6)" xlink:href="#l"/><use transform="translate(49.3 61) scale(1.18999)" xlink:href="#l"/><use transform="matrix(1.04 0 0 1.04 28.6 63)" xlink:href="#l"/><use transform="translate(203.3 64.3) scale(.93999)" xlink:href="#l"/><use transform="matrix(.7 0 0 .7 221.3 67.5)" xlink:href="#l"/><use transform="translate(75.8 56) scale(1.57999)" xlink:href="#l"/><use transform="matrix(1.14882 -.65 .65 1.14882 224.9 38.9)" xlink:href="#m"/><use transform="rotate(6.3 -407.6 87.8) scale(1.75929)" xlink:href="#m"/></g><g transform="translate(20 4569)"><use transform="matrix(1.96 0 0 1.96 103.8 50.8)" xlink:href="#l"/><use transform="translate(141.7 56) scale(1.57999)" xlink:href="#l"/><use transform="matrix(1.15 0 0 1.15 178.3 61.6)" xlink:href="#l"/><use transform="translate(49.3 61) scale(1.18999)" xlink:href="#l"/><use transform="matrix(1.04 0 0 1.04 28.6 63)" xlink:href="#l"/><use transform="translate(203.3 64.3) scale(.93999)" xlink:href="#l"/><use transform="matrix(.7 0 0 .7 221.3 67.5)" xlink:href="#l"/><use transform="translate(75.8 56) scale(1.57999)" xlink:href="#l"/><use transform="rotate(-7.3 545.6 -1794.4) scale(1.31941)" xlink:href="#m"/><use transform="rotate(-1 4482.8 45.2) scale(1.75993)" xlink:href="#m"/></g><path d="M138.6 4727.6l-67.1-10.4v40.4l66.7.8c7.5.1 13.6-6.3 13.7-14.3.1-8-5.8-15.4-13.3-16.5z" fill="#F7941D"/><path d="M73.4 4802l-.2 14.4-.5 13.3H78m1.7-27.4l2.1 11.8v18.7H87" fill="none" stroke="#41491F" stroke-linecap="round" stroke-linejoin="round" stroke-width="3"/><path d="M108.6 4770.4a14.3 14.3 0 0 1-6.9-12.2 14.2 14.2 0 0 1 7-12.2 40.2 40.2 0 0 0-29.4-68 40.3 40.3 0 0 0-31.1 66c1.6 2 3.5 3.8 5.5 5.5l15.4 15.4H53.9a20.3 20.3 0 0 1-16.1-17.7 36.6 36.6 0 0 0 18.9 68h37.6c11.7 0 21.2-9.5 21.2-21.2v-8c0-6.1-2.7-11.7-6.9-15.6zm-4.2-20.4c1.5-1.2 3-2.5 4.3-4-1.7 1-3.2 2.4-4.3 4z" fill="#F5E035"/><g transform="translate(94 4717.2)"><ellipse fill="#FFF" rx="18.5" ry="18.5"/><ellipse fill="#424D21" rx="12.9" ry="12.9"/></g><path d="M88.8 4688.5a29.1 29.1 0 0 1-17.8 10.7" fill="none" stroke="#424D21" stroke-linecap="round" stroke-width="6.6"/><path d="M127 4751.5c-.4 0-.7 0-1-.3-3.7-3-9-3-12.7 0a1.5 1.5 0 1 1-1.9-2.4 13 13 0 0 1 16.5 0 1.5 1.5 0 0 1-1 2.7z" fill="#C87629"/><g fill="none" stroke="#749948" stroke-width="9"><path d="M24.5 4859.5h60.1v37.3H24.5z"/><path d="M24.5 4859.5l30 18.7 30.1-18.7"/></g><path d="M272.2 5188.9c8.1 0 14.7-6.6 14.7-14.7v-237.5c0-8.1-6.6-14.7-14.7-14.7H34.7c-8.1 0-14.7 6.6-14.7 14.7v237.5c0 8.1 6.6 14.7 14.7 14.7h237.5z" fill="#3C5A99"/><path d="M204.2 5188.9v-103.4h34.6l5.2-40.2h-39.8v-25.8c0-11.6 3.2-19.6 20-19.6h21.2V4964c-3.6-.5-16.3-1.6-31-1.6-30.8 0-51.8 18.8-51.8 53.3v29.7h-34.8v40.2h34.8V5189h41.6z" fill="#FFF"/><g transform="translate(20 5209)"><path d="M163.8 79.3V9.8M125 79.3V9.8" fill="none" stroke="#96642F" stroke-width="7.6"/><circle cx="163.8" cy="9.8" fill="#96642F" r="9.8"/><circle cx="125.2" cy="9.8" fill="#96642F" r="9.8"/><linearGradient gradientTransform="matrix(-1 0 0 1 2065.9 0)" gradientUnits="userSpaceOnUse" id="n" x1="1875.8" x2="2065.9" y1="128.6" y2="128.6"><stop offset="0" stop-color="#d2995b"/><stop offset=".3" stop-color="#be8548"/><stop offset=".7" stop-color="#ad7438"/><stop offset="1" stop-color="#a76e32"/></linearGradient><path d="M6 179h97v-71.3a41.5 41.5 0 1 1 83 0v71.8c2.4.8 4 3 4 5.5a6 6 0 0 1-6 6H6a6 6 0 0 1-6-6 6 6 0 0 1 6-6z" fill="url(#n)"/><circle cx="175.9" cy="97.8" fill="#FFF" r="17.7"/><circle cx="183.3" cy="98.5" fill="#231F20" r="12.3"/><circle cx="142.7" cy="97.8" fill="#FFF" r="17.7"/><circle cx="150.2" cy="98.5" fill="#231F20" r="12.3"/><path d="M157.4 128.8a15 15 0 0 1-14-9.5h28a15 15 0 0 1-14 9.5z" fill="#231F20"/><path d="M61 119.2a41.9 41.9 0 0 1 42 41.9v19.1H19.2v-19.1A41.9 41.9 0 0 1 61 119z" fill="#764920"/><path d="M39 169.3a28.3 28.3 0 0 1 9-30c9.6-8 23.9-6.7 32 2.9a18.1 18.1 0 0 1-2.4 25.5 14.5 14.5 0 0 1-20.4-1.8c-4.1-5-3.4-12.3 1.5-16.4a9.2 9.2 0 0 1 13 1.2 7.4 7.4 0 0 1-.9 10.5 6 6 0 0 1-8.4-.8" fill="none" stroke="#231F20" stroke-width="4"/></g><g transform="translate(20 5420)"><g fill="none" stroke="#738968" stroke-width="3"><path d="M41.7 27.3L5.8 63.2m199.8-34.3l34.1 34.2m-198.2 19L4.9 45.5m200.7 38.6l36.6-36.6M41.7 83.2L4.8 120.1m36.9-36.9L69 110.5l27-26.9 27.8 26.7 27.1-27 27.4 28.9 27.4-27.4 35.8 35.8m-200-38.5L69 54.6 96.3 82l27.4-27.4 28.3 28 26.3-26.3 26 26"/><path d="M41.7 27.3L69 54.6l27-26.8 27.8 26.7 27.1-27.1 27.4 29 27.4-27.5"/></g><path d="M124 102.2c-57 0-104.4 11-114.1 25.6h228c-9.6-14.6-57-25.6-114-25.6z" fill="#C9D9B4"/><linearGradient gradientUnits="userSpaceOnUse" id="o" x2="245.4" y1="148.2" y2="148.2"><stop offset="0" stop-color="#7a9470"/><stop offset=".5" stop-color="#9bae8c"/><stop offset="1" stop-color="#7a9470"/></linearGradient><path d="M0 124.1h245.4v48.1H0z" fill="url(#o)"/><g fill="none" stroke="#4F6645" stroke-width="3"><ellipse cx="122.1" cy="20.9" rx="116.8" ry="9.6" stroke-width="2.9"/><ellipse cx="122.1" cy="76.2" rx="116.8" ry="7.4"/><path d="M95.9 172.2V0m56 172.2V0m52.3 172.2V4M41.7 172.2V4M4.5 172.2V10m236.4 162.2V9"/></g><g fill="none" stroke="#56694B" stroke-width="3"><path d="M41.5 123.7L69 96.2l27.3 27.2L123.7 96l28.2 28.1 26.3-26.3 26 26 28-26.6-26.6-26.7-27.4 27.3L150.8 69l-27 27.1-27.9-26.7L69 96.2 41.7 68.8 14.4 96.1"/><path d="M41.7 123.4L14.4 96.2 4.5 106m236.3-74.6L204.2 68l-26-26-26.3 26.3L123.7 40 96.3 67.6 69 40.3 41.5 67.8 5.1 31.3"/><path d="M241.3 50.3l-35.7-35.7L178.2 42l-27.4-29-27 27.1-27.9-26.7L69 40.3 41.7 13 5.1 49.6m228.2 48.6l8.6 8.7"/></g></g><path d="M55 5644.8h11.4v34.9H24.9v-34.9h11m21.4-14.9l-11.7-10.8-11.8 10.9m11.8 19.4v-30.3" fill="none" stroke="#749948" stroke-linecap="round" stroke-width="9"/><path d="M21.5 5706.5v17.8" fill="none" stroke="#40491F" stroke-linecap="round" stroke-width="3"/><g transform="translate(20 5746)"><linearGradient gradientTransform="rotate(90 1715.8 383.6)" gradientUnits="userSpaceOnUse" id="p" x1="1365.3" x2="1801.9" y1="1857.7" y2="1857.7"><stop offset="0" stop-color="#533116"/><stop offset=".1" stop-color="#3c2310"/><stop offset=".2" stop-color="#26160a"/><stop offset=".3" stop-color="#150c06"/><stop offset=".4" stop-color="#090502"/><stop offset=".6" stop-color="#020101"/><stop offset="1"/></linearGradient><path d="M57.9 469.7V216.9a183.8 183.8 0 1 1 367.6 0v252.8H57.9z" fill="url(#p)"/><path d="M279.2 47.9a40.7 40.7 0 0 0-39 30.2 40.7 40.7 0 0 0-39-30.2 41 41 0 0 0-40.5 41.5 41 41 0 0 0 40.5 41.6 40.7 40.7 0 0 0 39-30.3 40.7 40.7 0 0 0 39 30.3c22.4 0 40.5-18.6 40.5-41.6S301.6 48 279.2 48z" fill="#FFF"/><circle cx="207.1" cy="91.5" r="29.3"/><circle cx="274.1" cy="91.5" r="29.3"/><circle cx="292.9" cy="91.6" fill="none" r="51.7" stroke="#2786A8" stroke-width="12"/><path d="M414.7 116A37.8 37.8 0 0 0 377 78.3h-34.3M70.1 116A37.8 37.8 0 0 1 108 78.3h36.3" fill="none" stroke="#2786A8" stroke-width="12"/><circle cx="188.6" cy="91.6" fill="none" r="51.7" stroke="#2786A8" stroke-width="12"/><path d="M208.6 2.5A30.5 30.5 0 0 1 239 33m-37.4-10.5c16-5.2 33.2 3.5 38.5 19.5M273 16.1c-17 .1-30.5 14-30.3 30.8" fill="none" stroke="#533116" stroke-linecap="round" stroke-width="5"/><linearGradient gradientTransform="rotate(90 1715.8 383.6)" gradientUnits="userSpaceOnUse" id="q" x1="1447.6" x2="1801.9" y1="1857.7" y2="1857.7"><stop offset="0" stop-color="#dd9090"/><stop offset="1" stop-color="#b76e6e"/></linearGradient><path d="M98.5 469.7V258.6a143.2 143.2 0 0 1 286.4 0v211H98.5z" fill="url(#q)"/><path d="M250.3 173.7H230a35.3 35.3 0 0 1-35.2-35.2 35.3 35.3 0 0 1 35.2-35.2h20.2a35.3 35.3 0 0 1 35.2 35.2 35.3 35.3 0 0 1-35.2 35.2z" fill="#C05A5A"/><path d="M197.2 184.6a43.5 43.5 0 0 0 24.6 25.5l41.9-.8a43.2 43.2 0 0 0 22.8-24.7h-89.3z"/><path d="M230.1 200.2c6.1 0 11.4-3.8 13.6-9.1a14.7 14.7 0 0 0 28.2-5.6v-.9h-56.4v1c0 8 6.5 14.6 14.6 14.6z" fill="#FFF"/><path d="M263.7 209.3a45.8 45.8 0 0 0-20.2-4.4 45 45 0 0 0-21.7 5.2 51.2 51.2 0 0 0 41.9-.8z" fill="#C05A5A"/><path d="M54.2 352.2a27 27 0 1 1-54.2 0v-41.5h54.2v41.5zm377.1 0a27 27 0 1 0 54.2 0v-41.5h-54.2v41.5z"/><path d="M30.1 244.8h422.6v157H30.1z" fill="#FFF"/><path d="M71.5 301.6l-31.6 2c-2.6 0-4.7-4.1-4.7-6.7 0-2.6 2.1-6.8 4.7-6.8l31.6 2c2.6 0 4.8 2.2 4.8 4.8 0 2.6-2.2 4.7-4.8 4.7zm0 30.3l-31.6 2c-2.6 0-4.7-4.2-4.7-6.8 0-2.6 2.1-6.7 4.7-6.7l31.6 2c2.6 0 4.8 2.1 4.8 4.7S74 332 71.5 332zm12-15.6l-31.6 2c-2.6 0-4.7-4.1-4.7-6.7 0-2.6 2.1-6.8 4.7-6.8l31.6 2c2.6 0 4.8 2.2 4.8 4.8 0 2.6-2.2 4.7-4.8 4.7z" fill="#BCB3B3"/><circle cx="27.1" cy="310.7" r="27.1"/><path d="M414 301.6l31.6 2c2.6 0 4.7-4.1 4.7-6.7 0-2.6-2.1-6.8-4.7-6.8l-31.6 2a4.8 4.8 0 0 0-4.8 4.8c0 2.6 2.2 4.7 4.8 4.7zm0 30.3l31.6 2c2.6 0 4.7-4.2 4.7-6.8 0-2.6-2.1-6.7-4.7-6.7l-31.6 2a4.8 4.8 0 0 0-4.8 4.7c0 2.6 2.2 4.8 4.8 4.8zm-12-15.6l31.6 2c2.6 0 4.7-4.1 4.7-6.7 0-2.6-2.1-6.8-4.7-6.8l-31.6 2a4.8 4.8 0 0 0-4.8 4.8c0 2.6 2.2 4.7 4.8 4.7z" fill="#BCB3B3"/><circle cx="458.4" cy="310.7" r="27.1"/><g fill="#683B16"><path d="M197.4 262.4h21.8v67.9l30.1.6 4.2-68.5h21.3L269 359h-55.3l-16.4-19.5zm152.7 20.1l-62.3-2.6-4.1 25.3 22.8-1.1-5 69.2h20.7l3.5-70.2 24.4-1.2zm-171.4 1.1l-32.1-14.2-37.4 14.2-4.4 66.8 14.2 27.8 55.7-4.9 9.6-36.4-5.6-53.3zM161.5 351l-35.7 3 4.3-59.3h31.4V351z"/><circle cx="371.1" cy="359.7" r="13.6"/><path d="M364.8 336.6l18.3 2.3 5.1-66.7h-18.7z"/></g></g><g transform="translate(20 6236)"><path d="M135 87.4c-.9-.7-108.1-63-108.1-63-1.7-.9-18.7 4.6-18.7 11.9v120.6A13.2 13.2 0 0 0 25.5 168c1.6-.5 108.7-60.1 110-61.2a12.5 12.5 0 0 0-.5-19.4z" fill="#424D21" opacity=".1"/><path d="M129.2 69.5L26 9.3A12.5 12.5 0 0 0 8.2 20.7v115.1a12.6 12.6 0 0 0 16.5 10.7 7749 7749 0 0 0 105-58.5 12 12 0 0 0-.5-18.5z" fill="none" stroke="#647331" stroke-linejoin="round" stroke-width="16.3"/><linearGradient gradientUnits="userSpaceOnUse" id="r" x1="71" x2="71" y1="8.1" y2="147.1"><stop offset="0" stop-color="#fff200"/><stop offset=".2" stop-color="#ffed00"/><stop offset=".4" stop-color="#ffe500"/><stop offset=".5" stop-color="gold"/><stop offset=".7" stop-color="#ffc40c"/><stop offset=".9" stop-color="#fbaa19"/><stop offset="1" stop-color="#f7941d"/></linearGradient><path d="M129.2 69.5L26 9.3A12.5 12.5 0 0 0 8.2 20.7v115.1a12.6 12.6 0 0 0 16.5 10.7 7749 7749 0 0 0 105-58.5 12 12 0 0 0-.5-18.5z" fill="url(#r)"/></g><path d="M72.7 6466.6L60 6448.8h7.5a19.5 19.5 0 1 0-18.8 24.5v9a28.5 28.5 0 1 1 28-33.5h8.7l-12.7 17.8zm-20.6 35.5a20.8 20.8 0 0 0-17 32.7L21 6548.7a4.5 4.5 0 1 0 6.4 6.3l14.2-14a20.8 20.8 0 1 0 10.5-39zm0 32.7a11.9 11.9 0 1 1 0-23.7 11.9 11.9 0 0 1 0 23.7zM38.9 6603l21.6 10.3a9.4 9.4 0 1 1-3.7 6.7l-21-10a9.4 9.4 0 1 1-.2-14l21.2-10v-.8a9.4 9.4 0 1 1 3.7 7.5L38.9 6603v.2z" fill="#749948"/><g transform="translate(20 6650)"><defs><path d="M14.8 29.3a7 7 0 0 0 1.7 9.9C20.5 42 26 41 28.8 37a11 11 0 0 0-2.7-15.4A13.8 13.8 0 0 0 6.9 25C1.4 32.8 2.5 40.1 11 49l23.7 23.7m-5.5 6.6a5 5 0 0 0-3.3 2.1 6.4 6.4 0 0 0 1.6 9 8 8 0 0 0 11-2c3.2-4.6 2.6-8.8-2.4-14" fill="none" id="s" stroke="#F5DF15" stroke-linecap="round" stroke-width="7"/></defs><use xlink:href="#s"/><use transform="matrix(-1 0 0 1 166 0)" xlink:href="#s"/><path d="M128 55.8V0H37.7v55.8a45.2 45.2 0 0 0 35.5 44.1 14 14 0 0 0 3.4 22.6l-23.4 23.4v5.6h-5v12h69.2v-12h-5v-5.6h.4l-23.5-23.5a14 14 0 0 0 3.4-22.5A45.2 45.2 0 0 0 128 55.8z" fill="#F5DF15"/></g><path d="M98.6 7037.1c94.4 0 146-78.1 146-145.9 0-2.2 0-4.4-.2-6.6 10-7.3 18.7-16.3 25.6-26.6a97.9 97.9 0 0 1-29.5 8 51.5 51.5 0 0 0 22.6-28.3c-10 6-21 10.2-32.6 12.5a51.3 51.3 0 0 0-87.4 46.7 145.2 145.2 0 0 1-105.7-53.5 51.3 51.3 0 0 0 15.9 68.4 51 51 0 0 1-23.3-6.4v.7a51.3 51.3 0 0 0 41.1 50.2 51.5 51.5 0 0 1-23.1 1 51.4 51.4 0 0 0 48 35.5 103 103 0 0 1-76 21.3 146 146 0 0 0 78.6 23" fill="#FFF"/><g transform="translate(20 7058)"><defs><path d="M569.3 154.3v2.6h11.5l.7-2.7h-12.2z" fill="#906B2F" id="u"/><path d="M594.2 153l-5.6.6-2-2.2h-.9l1.1 2.4-4.3.4v2.7H593l1.3-3.9z" fill="#906B2F" id="t"/><path d="M572.7 170.7v-2.9l-2.4 2.3v-13.2h-3.5l.8 30.3h2.8v-13.6l2.3-3z" fill="#906B2F" id="v"/><path d="M579.1 187.3h2.4l1-30.4h-3.4v30.3z" fill="#906B2F" id="w"/><path d="M594.5 182.8l3.4-5.8-1.9-.8-1.3 1.9 1.2-21.2h-3q-3 28.3-3 30.3h4.3l.3-4.4z" fill="#906B2F" id="x"/></defs><use transform="translate(-1438.5 -328.8) scale(2.57555)" xlink:href="#t"/><use transform="translate(-1439.7 -328.4) scale(2.57555)" xlink:href="#u"/><use transform="rotate(-3 -5505.6 27641.3) scale(2.5755)" xlink:href="#v"/><use transform="translate(-1436.8 -326.3) scale(2.5755)" xlink:href="#w"/><use transform="translate(-1442.8 -327.8) scale(2.5755)" xlink:href="#x"/></g><g transform="translate(20 7262)"><defs><path d="M-1257.5 415.4l-27.5 6 19.8 27.2-3 24.5 27.2-11.4 27.2 11.4-4.2-25.7 21-26-26.2-7.4-17.8-24.5-16.5 25.9z" fill="#F8EB48" id="y"/></defs><use transform="translate(946.3 -239.7) scale(.7154)" xlink:href="#y"/><use transform="translate(-1438.4 -335.3) scale(2.57545)" xlink:href="#u"/><use transform="rotate(42 1228.6 -1644.6) scale(2.57551)" xlink:href="#t"/><use transform="rotate(-15 -490.9 5752.6) scale(2.5755)" xlink:href="#v"/><use transform="rotate(13 2208.2 -5988.7) scale(2.5755)" xlink:href="#w"/><use transform="rotate(21 1692.4 -3573.6) scale(2.5756)" xlink:href="#x"/></g><g transform="translate(20 7466)"><use opacity=".8" transform="translate(1221 -339.9) scale(.93677)" xlink:href="#y"/><use transform="rotate(-37.3 251.8 2362.7) scale(2.5755)" xlink:href="#u"/><use transform="rotate(118.8 896.2 -200.8) scale(2.57191)" xlink:href="#t"/><use transform="rotate(-15 -490.9 5752.6) scale(2.5755)" xlink:href="#v"/><use transform="rotate(13 2208.2 -5988.7) scale(2.5755)" xlink:href="#w"/><use transform="rotate(21 1692.4 -3573.6) scale(2.5756)" xlink:href="#x"/></g><g transform="translate(20 7670)"><use opacity=".6" transform="translate(1435 -418) scale(1.10916)" xlink:href="#y"/><use transform="rotate(-74.5 530.5 1170) scale(2.57542)" xlink:href="#u"/><use transform="rotate(174 804.7 182) scale(2.57544)" xlink:href="#t"/><use transform="rotate(-15 -490.9 5752.6) scale(2.5755)" xlink:href="#v"/><use transform="rotate(13 2208.2 -5988.7) scale(2.5755)" xlink:href="#w"/><use transform="rotate(21 1692.4 -3573.6) scale(2.5756)" xlink:href="#x"/></g><g transform="translate(20 7874)"><use opacity=".4" transform="translate(1587.7 -473.7) scale(1.2322)" xlink:href="#y"/><use transform="rotate(-111.8 640 707.2) scale(2.57545)" xlink:href="#u"/><use transform="rotate(-153 752.3 389.7) scale(2.57553)" xlink:href="#t"/><use transform="rotate(-15 -490.9 5752.6) scale(2.5755)" xlink:href="#v"/><use transform="rotate(13 2208.2 -5988.7) scale(2.5755)" xlink:href="#w"/><use transform="rotate(21 1692.4 -3573.6) scale(2.5756)" xlink:href="#x"/></g><g transform="translate(20 8078)"><use opacity=".3" transform="translate(1679.4 -507.1) scale(1.30605)" xlink:href="#y"/><use transform="rotate(-149 711.1 414.8) scale(2.57545)" xlink:href="#u"/><use transform="rotate(-142 733.3 463.9) scale(2.57549)" xlink:href="#t"/><use transform="rotate(-15 -490.9 5752.6) scale(2.5755)" xlink:href="#v"/><use transform="rotate(13 2208.2 -5988.7) scale(2.5755)" xlink:href="#w"/><use transform="rotate(21 1692.4 -3573.6) scale(2.5756)" xlink:href="#x"/></g><g transform="translate(20 8282)"><use opacity=".3" transform="translate(1709.8 -518.3) scale(1.33064)" xlink:href="#y"/><use transform="rotate(174 772.7 178) scale(2.57622)" xlink:href="#u"/><use transform="rotate(-130 711 551.7) scale(2.57568)" xlink:href="#t"/><use transform="rotate(-15 -490.9 5752.6) scale(2.5755)" xlink:href="#v"/><use transform="rotate(13 2208.2 -5988.7) scale(2.5755)" xlink:href="#w"/><use transform="rotate(21 1692.4 -3573.6) scale(2.5756)" xlink:href="#x"/></g><g transform="translate(20 8486)"><use transform="rotate(169.2 779.8 149.5) scale(2.57463)" xlink:href="#u"/><use transform="rotate(-126.4 703.2 580.4) scale(2.57159)" xlink:href="#t"/><use transform="rotate(-15 -490.9 5752.6) scale(2.5755)" xlink:href="#v"/><use transform="rotate(13 2208.2 -5988.7) scale(2.5755)" xlink:href="#w"/><use transform="rotate(21 1692.4 -3573.6) scale(2.5756)" xlink:href="#x"/></g><g transform="translate(20 8690)"><use transform="rotate(154.7 802 61.5) scale(2.57296)" xlink:href="#u"/><use transform="rotate(-115.6 684.9 675.5) scale(2.57237)" xlink:href="#t"/><use transform="rotate(-15 -490.9 5752.6) scale(2.5755)" xlink:href="#v"/><use transform="rotate(13 2208.2 -5988.7) scale(2.5755)" xlink:href="#w"/><use transform="rotate(21 1692.4 -3573.6) scale(2.5756)" xlink:href="#x"/></g><g transform="translate(20 8894)"><use transform="rotate(130.5 841 -99.5) scale(2.57623)" xlink:href="#u"/><use transform="rotate(-97.8 650.7 859.7) scale(2.57563)" xlink:href="#t"/><use transform="rotate(-15 -490.9 5752.6) scale(2.5755)" xlink:href="#v"/><use transform="rotate(13 2208.2 -5988.7) scale(2.5755)" xlink:href="#w"/><use transform="rotate(21 1692.4 -3573.6) scale(2.5756)" xlink:href="#x"/></g><g transform="translate(20 9098)"><use transform="rotate(96.6 901.5 -396) scale(2.57523)" xlink:href="#u"/><use transform="rotate(-72.7 587.7 1220.7) scale(2.5732)" xlink:href="#t"/><use transform="rotate(-15 -490.9 5752.6) scale(2.5755)" xlink:href="#v"/><use transform="rotate(13 2208.2 -5988.7) scale(2.5755)" xlink:href="#w"/><use transform="rotate(21 1692.4 -3573.6) scale(2.5756)" xlink:href="#x"/></g><g transform="translate(20 9302)"><use transform="rotate(53.2 1041 -1174.2) scale(2.57216)" xlink:href="#u"/><use transform="rotate(-40.4 423.7 2213.4) scale(2.57145)" xlink:href="#t"/><use transform="rotate(-15 -490.9 5752.6) scale(2.5755)" xlink:href="#v"/><use transform="rotate(13 2208.2 -5988.7) scale(2.5755)" xlink:href="#w"/><use transform="rotate(21 1692.4 -3573.6) scale(2.5756)" xlink:href="#x"/></g><g transform="translate(20 9506)"><use transform="translate(-1439 -239.6) scale(2.57617)" xlink:href="#u"/><use transform="rotate(-1 -12620 82752) scale(2.57562)" xlink:href="#t"/><use transform="rotate(-15 -490.9 5752.6) scale(2.5755)" xlink:href="#v"/><use transform="rotate(13 2208.2 -5988.7) scale(2.5755)" xlink:href="#w"/><use transform="rotate(21 1692.4 -3573.6) scale(2.5756)" xlink:href="#x"/></g><g transform="translate(20 9710)"><use transform="translate(-1438.4 -238.6) scale(2.5755)" xlink:href="#u"/><use transform="rotate(-1 -12659.4 82997.4) scale(2.57551)" xlink:href="#t"/><use transform="rotate(-15 -490.9 5752.6) scale(2.5755)" xlink:href="#v"/><use transform="rotate(13 2208.2 -5988.7) scale(2.5755)" xlink:href="#w"/><use transform="rotate(21 1692.4 -3573.6) scale(2.5756)" xlink:href="#x"/></g><path d="M34 9915.7l18.6 11.7a6.8 6.8 0 0 1-7.2 11.6 7 7 0 0 1-9 1.9 6.8 6.8 0 0 1-8.6 1l-6.7-4.2" fill="#F5E035"/><path d="M34 9915.7l18.6 11.7a6.8 6.8 0 0 1-7.2 11.6 7 7 0 0 1-9 1.9 6.8 6.8 0 0 1-8.6 1l-6.7-4.2" fill="none" stroke="#CEB62C" stroke-width="4"/></svg>